<svg width="31" height="31" viewBox="0 0 31 31" fill="none" xmlns="http://www.w3.org/2000/svg">
<path d="M26.9884 11.795C26.6583 11.4657 26.2111 11.2807 25.7448 11.2807C25.2785 11.2807 24.8313 11.4657 24.5013 11.795L22.7376 13.56V8.91501C22.7389 8.68316 22.6941 8.45338 22.6056 8.23906C22.5172 8.02473 22.387 7.83016 22.2225 7.66667L20.5656 6.01501C20.4027 5.85121 20.2089 5.72135 19.9954 5.63295C19.782 5.54455 19.5531 5.49937 19.322 5.50001H9.25864C8.79235 5.50045 8.34529 5.68584 8.01558 6.0155C7.68587 6.34515 7.50044 6.79214 7.5 7.25834V23.7433C7.50088 24.2092 7.6865 24.6558 8.01617 24.9851C8.34583 25.3144 8.79264 25.4996 9.25864 25.5H20.9723C21.4386 25.4996 21.8857 25.3142 22.2154 24.9845C22.5451 24.6549 22.7305 24.2079 22.731 23.7417V18.5333L26.9817 14.28C27.1454 14.1173 27.2754 13.924 27.3644 13.711C27.4533 13.498 27.4994 13.2697 27.5 13.0389C27.5006 12.8081 27.4557 12.5795 27.368 12.3661C27.2802 12.1526 27.1512 11.9586 26.9884 11.795ZM19.222 6.66667C19.3148 6.65514 19.4091 6.66408 19.4981 6.69288C19.5871 6.72167 19.6687 6.76962 19.7371 6.83334L21.3941 8.49001C21.4578 8.55846 21.5058 8.64004 21.5346 8.72902C21.5634 8.81799 21.5723 8.9122 21.5608 9.00501H19.222V6.66667ZM21.5658 23.7433C21.5662 23.8212 21.5511 23.8984 21.5214 23.9704C21.4917 24.0424 21.448 24.1078 21.3927 24.1627C21.3375 24.2176 21.2719 24.261 21.1997 24.2903C21.1275 24.3196 21.0502 24.3342 20.9723 24.3333H9.25864C9.10302 24.3333 8.95377 24.2715 8.84373 24.1615C8.73369 24.0515 8.67187 23.9023 8.67187 23.7467V7.25834C8.67121 7.18088 8.6859 7.10405 8.71509 7.0323C8.74428 6.96054 8.7874 6.89528 8.84195 6.84027C8.8965 6.78526 8.96141 6.7416 9.03293 6.7118C9.10445 6.68201 9.18116 6.66667 9.25864 6.66667H18.0502V9.60167C18.0502 9.75727 18.112 9.90649 18.222 10.0165C18.3321 10.1265 18.4813 10.1883 18.6369 10.1883H21.5658V14.7317L19.8371 16.4633L19.0037 17.2967C18.9394 17.3608 18.8909 17.439 18.862 17.525L18.0385 20C18.0042 20.1033 17.9993 20.2141 18.0244 20.32C18.0494 20.4259 18.1035 20.5228 18.1804 20.5997C18.2574 20.6767 18.3543 20.7307 18.4602 20.7558C18.5662 20.7809 18.677 20.776 18.7803 20.7417L21.2674 19.9083C21.3535 19.8795 21.4317 19.831 21.4958 19.7667L21.5674 19.695V23.7333L21.5658 23.7433ZM20.2522 17.705L21.0857 18.5383L20.769 18.855L19.5254 19.27L19.9405 18.0267L20.2522 17.705ZM21.9092 17.705L21.0757 16.8717L23.8928 14.0517L24.7263 14.885L21.9092 17.705ZM26.1599 13.4517L25.5565 14.0567L24.723 13.2233L25.3281 12.6183C25.4386 12.5078 25.5885 12.4457 25.7448 12.4457C25.9011 12.4457 26.051 12.5078 26.1616 12.6183C26.2721 12.7288 26.3342 12.8787 26.3342 13.035C26.3342 13.1913 26.2721 13.3412 26.1616 13.4517H26.1599Z" fill="var(--emdn-primary-color, currentColor)"/>
<path d="M20.788 11.2899H10.9979C10.9032 11.2853 10.8086 11.2999 10.7197 11.333C10.6308 11.366 10.5496 11.4168 10.481 11.4822C10.4123 11.5475 10.3576 11.6262 10.3203 11.7133C10.2829 11.8004 10.2637 11.8943 10.2637 11.9891C10.2637 12.0839 10.2829 12.1777 10.3203 12.2648C10.3576 12.3519 10.4123 12.4306 10.481 12.496C10.5496 12.5614 10.6308 12.6121 10.7197 12.6452C10.8086 12.6782 10.9032 12.6929 10.9979 12.6882H20.7896C20.8843 12.6929 20.979 12.6782 21.0679 12.6452C21.1567 12.6121 21.238 12.5614 21.3066 12.496C21.3753 12.4306 21.43 12.3519 21.4673 12.2648C21.5047 12.1777 21.5239 12.0839 21.5239 11.9891C21.5239 11.8943 21.5047 11.8004 21.4673 11.7133C21.43 11.6262 21.3753 11.5475 21.3066 11.4822C21.238 11.4168 21.1567 11.366 21.0679 11.333C20.979 11.2999 20.8843 11.2853 20.7896 11.2899H20.788Z" fill="var(--emdn-primary-color, currentColor)"/>
<path d="M17.9894 13.6055H10.9882C10.8087 13.6142 10.6394 13.6917 10.5154 13.8219C10.3914 13.952 10.3223 14.1249 10.3223 14.3046C10.3223 14.4844 10.3914 14.6572 10.5154 14.7874C10.6394 14.9175 10.8087 14.995 10.9882 15.0038H17.9894C18.169 14.995 18.3383 14.9175 18.4623 14.7874C18.5863 14.6572 18.6554 14.4844 18.6554 14.3046C18.6554 14.1249 18.5863 13.952 18.4623 13.8219C18.3383 13.6917 18.169 13.6142 17.9894 13.6055Z" fill="var(--emdn-primary-color, currentColor)"/>
<path d="M17.9894 15.9208H10.9882C10.8935 15.9161 10.7988 15.9308 10.7099 15.9638C10.6211 15.9969 10.5399 16.0476 10.4712 16.113C10.4025 16.1784 10.3479 16.2571 10.3105 16.3442C10.2732 16.4313 10.2539 16.5251 10.2539 16.6199C10.2539 16.7147 10.2732 16.8086 10.3105 16.8957C10.3479 16.9828 10.4025 17.0614 10.4712 17.1268C10.5399 17.1922 10.6211 17.2429 10.7099 17.276C10.7988 17.309 10.8935 17.3237 10.9882 17.3191H17.9894C18.0841 17.3237 18.1788 17.309 18.2676 17.276C18.3565 17.2429 18.4377 17.1922 18.5064 17.1268C18.575 17.0614 18.6297 16.9828 18.6671 16.8957C18.7044 16.8086 18.7237 16.7147 18.7237 16.6199C18.7237 16.5251 18.7044 16.4313 18.6671 16.3442C18.6297 16.2571 18.575 16.1784 18.5064 16.113C18.4377 16.0476 18.3565 15.9969 18.2676 15.9638C18.1788 15.9308 18.0841 15.9161 17.9894 15.9208Z" fill="var(--emdn-primary-color, currentColor)"/>
<path d="M17.9894 18.2372H10.9882C10.8935 18.2325 10.7988 18.2472 10.7099 18.2802C10.6211 18.3133 10.5399 18.364 10.4712 18.4294C10.4025 18.4948 10.3479 18.5735 10.3105 18.6606C10.2732 18.7477 10.2539 18.8415 10.2539 18.9363C10.2539 19.0311 10.2732 19.125 10.3105 19.2121C10.3479 19.2992 10.4025 19.3778 10.4712 19.4432C10.5399 19.5086 10.6211 19.5593 10.7099 19.5924C10.7988 19.6254 10.8935 19.6401 10.9882 19.6355H17.9894C18.0841 19.6401 18.1788 19.6254 18.2676 19.5924C18.3565 19.5593 18.4377 19.5086 18.5064 19.4432C18.575 19.3778 18.6297 19.2992 18.6671 19.2121C18.7044 19.125 18.7237 19.0311 18.7237 18.9363C18.7237 18.8415 18.7044 18.7477 18.6671 18.6606C18.6297 18.5735 18.575 18.4948 18.5064 18.4294C18.4377 18.364 18.3565 18.3133 18.2676 18.2802C18.1788 18.2472 18.0841 18.2325 17.9894 18.2372Z" fill="var(--emdn-primary-color, currentColor)"/>
<path d="M19.012 21.3055H14.8163C14.7216 21.3009 14.6269 21.3156 14.5381 21.3486C14.4492 21.3817 14.368 21.4324 14.2993 21.4978C14.2307 21.5632 14.176 21.6418 14.1387 21.729C14.1013 21.8161 14.082 21.9099 14.082 22.0047C14.082 22.0995 14.1013 22.1933 14.1387 22.2805C14.176 22.3676 14.2307 22.4462 14.2993 22.5116C14.368 22.577 14.4492 22.6277 14.5381 22.6608C14.6269 22.6938 14.7216 22.7085 14.8163 22.7038H19.012C19.1067 22.7085 19.2014 22.6938 19.2902 22.6608C19.3791 22.6277 19.4604 22.577 19.529 22.5116C19.5977 22.4462 19.6523 22.3676 19.6897 22.2805C19.727 22.1933 19.7463 22.0995 19.7463 22.0047C19.7463 21.9099 19.727 21.8161 19.6897 21.729C19.6523 21.6418 19.5977 21.5632 19.529 21.4978C19.4604 21.4324 19.3791 21.3817 19.2902 21.3486C19.2014 21.3156 19.1067 21.3009 19.012 21.3055Z" fill="var(--emdn-primary-color, currentColor)"/>
</svg>
