<svg width="30" height="30" viewBox="0 0 30 30" fill="none" xmlns="http://www.w3.org/2000/svg">
<path d="M16.5566 4.79558C10.9136 4.63682 6.2905 9.27504 6.2905 15.0019H4.30602C3.80713 15.0019 3.56323 15.6143 3.918 15.9659L7.01112 19.1412C7.23285 19.368 7.57653 19.368 7.79826 19.1412L10.8914 15.9659C11.2351 15.6143 10.9912 15.0019 10.4923 15.0019H8.50779C8.50779 10.5792 12.0333 7.00696 16.3792 7.06366C20.5033 7.12036 23.9734 10.6699 24.0288 14.8885C24.0843 19.3226 20.592 22.9402 16.2683 22.9402C14.4834 22.9402 12.8315 22.3165 11.5233 21.2618C11.0799 20.9103 10.459 20.9443 10.0599 21.3526C9.59427 21.8289 9.62753 22.634 10.1486 23.0423C11.8337 24.4031 13.9512 25.2083 16.2683 25.2083C21.867 25.2083 26.4013 20.4793 26.2461 14.7071C26.102 9.38844 21.7561 4.94301 16.5566 4.79558ZM15.9912 10.4658C15.5366 10.4658 15.1597 10.8514 15.1597 11.3163V15.4896C15.1597 15.8865 15.3703 16.2607 15.7029 16.4648L19.1619 18.5628C19.561 18.801 20.071 18.6649 20.3038 18.268C20.5366 17.8597 20.4036 17.3381 20.0155 17.0999L16.8226 15.1607V11.305C16.8226 10.8514 16.4457 10.4658 15.9912 10.4658Z" fill="var(--emdn-primary-color, currentColor)"/>
</svg>
