<svg width="30" height="31" viewBox="0 0 30 31" fill="none" xmlns="http://www.w3.org/2000/svg">
<path d="M6.432 24.5C6.31743 24.5 6.20754 24.4545 6.12653 24.3735C6.04551 24.2925 6 24.1826 6 24.068V6.932C6 6.81743 6.04551 6.70754 6.12653 6.62653C6.20754 6.54551 6.31743 6.5 6.432 6.5H23.568C23.6826 6.5 23.7925 6.54551 23.8735 6.62653C23.9545 6.70754 24 6.81743 24 6.932V18.1938L23.9745 18.2193H18.108C18.0163 18.2193 17.9284 18.2557 17.8636 18.3205C17.7988 18.3853 17.7624 18.4732 17.7624 18.5649V24.4312L17.6942 24.4993L6.432 24.5ZM18.0796 18.8674C18.0796 18.7805 18.1141 18.6971 18.1756 18.6356C18.2371 18.5741 18.3205 18.5396 18.4075 18.5396H23.6544L18.0797 24.1144L18.0796 18.8674Z" fill="var(--emdn-primary-color, currentColor)"/>
<path d="M17.5051 23.6016L17.4434 23.6633H17.5051V23.6016Z" fill="var(--emdn-primary-color, currentColor)"/>
<path d="M23.1638 17.9665V17.9434L23.1406 17.9665H23.1638Z" fill="var(--emdn-primary-color, currentColor)"/>
</svg>
