<svg width="31" height="30" viewBox="0 0 31 30" fill="none" xmlns="http://www.w3.org/2000/svg">
<path d="M24.5 11.3666V19.9886C24.5 20.688 23.9214 21.2603 23.2143 21.2603H10.3571L6.5 23V8.54342C6.5 7.84399 7.07857 7.27173 7.78571 7.27173H18.3029C18.1614 7.66595 18.0714 8.09833 18.0714 8.54342C18.0714 10.6544 19.7943 12.3585 21.9286 12.3585C22.9186 12.3585 23.8186 11.977 24.5 11.3666Z" fill="var(--emdn-primary-color, currentColor)"/>
<path d="M21.9289 11.0868C20.5146 11.0868 19.3574 9.94223 19.3574 8.54338C19.3574 7.14452 20.5146 6 21.9289 6C23.3431 6 24.5003 7.14452 24.5003 8.54338C24.5003 9.94223 23.3431 11.0868 21.9289 11.0868Z" fill="#E10065"/>
</svg>
