<svg width="69" height="32" viewBox="0 0 69 32" fill="none" xmlns="http://www.w3.org/2000/svg">
<path d="M8.13854 11.78V6.794H9.57854C9.97454 6.794 10.3075 6.851 10.5775 6.965C10.8475 7.073 11.0665 7.235 11.2345 7.451C11.4085 7.661 11.5315 7.919 11.6035 8.225C11.6815 8.525 11.7205 8.867 11.7205 9.251C11.7205 9.647 11.6785 9.986 11.5945 10.268C11.5165 10.544 11.4145 10.775 11.2885 10.961C11.1625 11.147 11.0185 11.294 10.8565 11.402C10.7005 11.51 10.5415 11.594 10.3795 11.654C10.2175 11.708 10.0645 11.744 9.92054 11.762C9.77654 11.774 9.65654 11.78 9.56054 11.78H8.13854ZM7.28354 6.074V12.5H9.48854C10.0225 12.5 10.4845 12.425 10.8745 12.275C11.2645 12.125 11.5855 11.909 11.8375 11.627C12.0895 11.339 12.2755 10.988 12.3955 10.574C12.5155 10.154 12.5755 9.674 12.5755 9.134C12.5755 8.102 12.3085 7.334 11.7745 6.83C11.2405 6.326 10.4785 6.074 9.48854 6.074H7.28354ZM14.0525 10.178C14.0525 9.896 14.0885 9.647 14.1605 9.431C14.2385 9.209 14.3435 9.023 14.4755 8.873C14.6075 8.723 14.7605 8.609 14.9345 8.531C15.1145 8.453 15.3035 8.414 15.5015 8.414C15.6995 8.414 15.8855 8.453 16.0595 8.531C16.2395 8.609 16.3955 8.723 16.5275 8.873C16.6595 9.023 16.7615 9.209 16.8335 9.431C16.9115 9.647 16.9505 9.896 16.9505 10.178C16.9505 10.46 16.9115 10.712 16.8335 10.934C16.7615 11.15 16.6595 11.333 16.5275 11.483C16.3955 11.627 16.2395 11.738 16.0595 11.816C15.8855 11.894 15.6995 11.933 15.5015 11.933C15.3035 11.933 15.1145 11.894 14.9345 11.816C14.7605 11.738 14.6075 11.627 14.4755 11.483C14.3435 11.333 14.2385 11.15 14.1605 10.934C14.0885 10.712 14.0525 10.46 14.0525 10.178ZM13.2425 10.178C13.2425 10.52 13.2905 10.838 13.3865 11.132C13.4825 11.426 13.6265 11.684 13.8185 11.906C14.0105 12.122 14.2475 12.293 14.5295 12.419C14.8115 12.539 15.1355 12.599 15.5015 12.599C15.8735 12.599 16.1975 12.539 16.4735 12.419C16.7555 12.293 16.9925 12.122 17.1845 11.906C17.3765 11.684 17.5205 11.426 17.6165 11.132C17.7125 10.838 17.7605 10.52 17.7605 10.178C17.7605 9.836 17.7125 9.518 17.6165 9.224C17.5205 8.924 17.3765 8.666 17.1845 8.45C16.9925 8.228 16.7555 8.054 16.4735 7.928C16.1975 7.802 15.8735 7.739 15.5015 7.739C15.1355 7.739 14.8115 7.802 14.5295 7.928C14.2475 8.054 14.0105 8.228 13.8185 8.45C13.6265 8.666 13.4825 8.924 13.3865 9.224C13.2905 9.518 13.2425 9.836 13.2425 10.178ZM23.2704 12.5L24.7554 7.847H23.9634L22.9194 11.654H22.9014L21.9294 7.847H21.0924L20.1564 11.654H20.1384L19.0854 7.847H18.2394L19.7334 12.5H20.5614L21.4974 8.801H21.5154L22.4604 12.5H23.2704ZM25.4827 7.847V12.5H26.2477V9.872C26.2477 9.662 26.2747 9.47 26.3287 9.296C26.3887 9.116 26.4757 8.96 26.5897 8.828C26.7037 8.696 26.8447 8.594 27.0127 8.522C27.1867 8.45 27.3907 8.414 27.6247 8.414C27.9187 8.414 28.1497 8.498 28.3177 8.666C28.4857 8.834 28.5697 9.062 28.5697 9.35V12.5H29.3347V9.44C29.3347 9.188 29.3077 8.96 29.2537 8.756C29.2057 8.546 29.1187 8.366 28.9927 8.216C28.8667 8.066 28.7017 7.949 28.4977 7.865C28.2937 7.781 28.0387 7.739 27.7327 7.739C27.0427 7.739 26.5387 8.021 26.2207 8.585H26.2027V7.847H25.4827ZM30.5287 6.074V12.5H31.2937V6.074H30.5287ZM33.0368 10.178C33.0368 9.896 33.0728 9.647 33.1448 9.431C33.2228 9.209 33.3278 9.023 33.4598 8.873C33.5918 8.723 33.7448 8.609 33.9188 8.531C34.0988 8.453 34.2878 8.414 34.4858 8.414C34.6838 8.414 34.8698 8.453 35.0438 8.531C35.2238 8.609 35.3798 8.723 35.5118 8.873C35.6438 9.023 35.7458 9.209 35.8178 9.431C35.8958 9.647 35.9348 9.896 35.9348 10.178C35.9348 10.46 35.8958 10.712 35.8178 10.934C35.7458 11.15 35.6438 11.333 35.5118 11.483C35.3798 11.627 35.2238 11.738 35.0438 11.816C34.8698 11.894 34.6838 11.933 34.4858 11.933C34.2878 11.933 34.0988 11.894 33.9188 11.816C33.7448 11.738 33.5918 11.627 33.4598 11.483C33.3278 11.333 33.2228 11.15 33.1448 10.934C33.0728 10.712 33.0368 10.46 33.0368 10.178ZM32.2268 10.178C32.2268 10.52 32.2748 10.838 32.3708 11.132C32.4668 11.426 32.6108 11.684 32.8028 11.906C32.9948 12.122 33.2318 12.293 33.5138 12.419C33.7958 12.539 34.1198 12.599 34.4858 12.599C34.8578 12.599 35.1818 12.539 35.4578 12.419C35.7398 12.293 35.9768 12.122 36.1688 11.906C36.3608 11.684 36.5048 11.426 36.6008 11.132C36.6968 10.838 36.7448 10.52 36.7448 10.178C36.7448 9.836 36.6968 9.518 36.6008 9.224C36.5048 8.924 36.3608 8.666 36.1688 8.45C35.9768 8.228 35.7398 8.054 35.4578 7.928C35.1818 7.802 34.8578 7.739 34.4858 7.739C34.1198 7.739 33.7958 7.802 33.5138 7.928C33.2318 8.054 32.9948 8.228 32.8028 8.45C32.6108 8.666 32.4668 8.924 32.3708 9.224C32.2748 9.518 32.2268 9.836 32.2268 10.178ZM41.7688 12.482C41.6368 12.56 41.4538 12.599 41.2198 12.599C41.0218 12.599 40.8628 12.545 40.7428 12.437C40.6288 12.323 40.5718 12.14 40.5718 11.888C40.3618 12.14 40.1158 12.323 39.8338 12.437C39.5578 12.545 39.2578 12.599 38.9338 12.599C38.7238 12.599 38.5228 12.575 38.3308 12.527C38.1448 12.479 37.9828 12.404 37.8448 12.302C37.7068 12.2 37.5958 12.068 37.5118 11.906C37.4338 11.738 37.3948 11.537 37.3948 11.303C37.3948 11.039 37.4398 10.823 37.5298 10.655C37.6198 10.487 37.7368 10.352 37.8808 10.25C38.0308 10.142 38.1988 10.061 38.3848 10.007C38.5768 9.953 38.7718 9.908 38.9698 9.872C39.1798 9.83 39.3778 9.8 39.5638 9.782C39.7558 9.758 39.9238 9.728 40.0678 9.692C40.2118 9.65 40.3258 9.593 40.4098 9.521C40.4938 9.443 40.5358 9.332 40.5358 9.188C40.5358 9.02 40.5028 8.885 40.4368 8.783C40.3768 8.681 40.2958 8.603 40.1938 8.549C40.0978 8.495 39.9868 8.459 39.8608 8.441C39.7408 8.423 39.6208 8.414 39.5008 8.414C39.1768 8.414 38.9068 8.477 38.6908 8.603C38.4748 8.723 38.3578 8.954 38.3398 9.296H37.5748C37.5868 9.008 37.6468 8.765 37.7548 8.567C37.8628 8.369 38.0068 8.21 38.1868 8.09C38.3668 7.964 38.5708 7.874 38.7988 7.82C39.0328 7.766 39.2818 7.739 39.5458 7.739C39.7558 7.739 39.9628 7.754 40.1668 7.784C40.3768 7.814 40.5658 7.877 40.7338 7.973C40.9018 8.063 41.0368 8.192 41.1388 8.36C41.2408 8.528 41.2918 8.747 41.2918 9.017V11.411C41.2918 11.591 41.3008 11.723 41.3188 11.807C41.3428 11.891 41.4148 11.933 41.5348 11.933C41.6008 11.933 41.6788 11.918 41.7688 11.888V12.482ZM40.5268 10.097C40.4308 10.169 40.3048 10.223 40.1488 10.259C39.9928 10.289 39.8278 10.316 39.6538 10.34C39.4858 10.358 39.3148 10.382 39.1408 10.412C38.9668 10.436 38.8108 10.478 38.6728 10.538C38.5348 10.598 38.4208 10.685 38.3308 10.799C38.2468 10.907 38.2048 11.057 38.2048 11.249C38.2048 11.375 38.2288 11.483 38.2768 11.573C38.3308 11.657 38.3968 11.726 38.4748 11.78C38.5588 11.834 38.6548 11.873 38.7628 11.897C38.8708 11.921 38.9848 11.933 39.1048 11.933C39.3568 11.933 39.5728 11.9 39.7528 11.834C39.9328 11.762 40.0798 11.675 40.1938 11.573C40.3078 11.465 40.3918 11.351 40.4458 11.231C40.4998 11.105 40.5268 10.988 40.5268 10.88V10.097ZM43.0388 10.214C43.0388 9.986 43.0628 9.764 43.1108 9.548C43.1588 9.332 43.2368 9.14 43.3448 8.972C43.4528 8.804 43.5968 8.669 43.7768 8.567C43.9568 8.465 44.1758 8.414 44.4338 8.414C44.6978 8.414 44.9228 8.465 45.1088 8.567C45.2948 8.663 45.4448 8.792 45.5588 8.954C45.6788 9.116 45.7658 9.305 45.8198 9.521C45.8738 9.731 45.9008 9.95 45.9008 10.178C45.9008 10.394 45.8738 10.607 45.8198 10.817C45.7718 11.027 45.6908 11.216 45.5768 11.384C45.4628 11.546 45.3158 11.678 45.1358 11.78C44.9558 11.882 44.7368 11.933 44.4788 11.933C44.2328 11.933 44.0168 11.885 43.8308 11.789C43.6508 11.693 43.5008 11.564 43.3808 11.402C43.2668 11.24 43.1798 11.057 43.1198 10.853C43.0658 10.643 43.0388 10.43 43.0388 10.214ZM46.6388 12.5V6.074H45.8738V8.468H45.8558C45.7718 8.33 45.6668 8.216 45.5408 8.126C45.4208 8.03 45.2918 7.955 45.1538 7.901C45.0158 7.841 44.8778 7.799 44.7398 7.775C44.6018 7.751 44.4728 7.739 44.3528 7.739C43.9988 7.739 43.6868 7.805 43.4168 7.937C43.1528 8.063 42.9308 8.237 42.7508 8.459C42.5768 8.675 42.4448 8.93 42.3548 9.224C42.2708 9.518 42.2288 9.83 42.2288 10.16C42.2288 10.49 42.2738 10.802 42.3638 11.096C42.4538 11.39 42.5858 11.648 42.7598 11.87C42.9398 12.092 43.1618 12.269 43.4258 12.401C43.6958 12.533 44.0108 12.599 44.3708 12.599C44.6948 12.599 44.9918 12.542 45.2618 12.428C45.5318 12.314 45.7298 12.128 45.8558 11.87H45.8738V12.5H46.6388ZM51.3826 7.847V6.452H50.6176V7.847H49.8256V8.522H50.6176V11.483C50.6176 11.699 50.6386 11.873 50.6806 12.005C50.7226 12.137 50.7856 12.239 50.8696 12.311C50.9596 12.383 51.0736 12.434 51.2116 12.464C51.3556 12.488 51.5266 12.5 51.7246 12.5H52.3096V11.825H51.9586C51.8386 11.825 51.7396 11.822 51.6616 11.816C51.5896 11.804 51.5326 11.783 51.4906 11.753C51.4486 11.723 51.4186 11.681 51.4006 11.627C51.3886 11.573 51.3826 11.501 51.3826 11.411V8.522H52.3096V7.847H51.3826ZM53.1595 6.074V12.5H53.9245V9.872C53.9245 9.662 53.9515 9.47 54.0055 9.296C54.0655 9.116 54.1525 8.96 54.2665 8.828C54.3805 8.696 54.5215 8.594 54.6895 8.522C54.8635 8.45 55.0675 8.414 55.3015 8.414C55.5955 8.414 55.8265 8.498 55.9945 8.666C56.1625 8.834 56.2465 9.062 56.2465 9.35V12.5H57.0115V9.44C57.0115 9.188 56.9845 8.96 56.9305 8.756C56.8825 8.546 56.7955 8.366 56.6695 8.216C56.5435 8.066 56.3785 7.949 56.1745 7.865C55.9705 7.781 55.7155 7.739 55.4095 7.739C55.2715 7.739 55.1275 7.754 54.9775 7.784C54.8335 7.814 54.6925 7.862 54.5545 7.928C54.4225 7.988 54.3025 8.069 54.1945 8.171C54.0865 8.267 54.0025 8.387 53.9425 8.531H53.9245V6.074H53.1595ZM61.3915 9.728H58.7185C58.7305 9.548 58.7695 9.38 58.8355 9.224C58.9015 9.062 58.9915 8.921 59.1055 8.801C59.2195 8.681 59.3545 8.588 59.5105 8.522C59.6725 8.45 59.8525 8.414 60.0505 8.414C60.2425 8.414 60.4165 8.45 60.5725 8.522C60.7345 8.588 60.8725 8.681 60.9865 8.801C61.1065 8.915 61.1995 9.053 61.2655 9.215C61.3375 9.377 61.3795 9.548 61.3915 9.728ZM62.1295 11.024H61.3735C61.3075 11.33 61.1695 11.558 60.9595 11.708C60.7555 11.858 60.4915 11.933 60.1675 11.933C59.9155 11.933 59.6965 11.891 59.5105 11.807C59.3245 11.723 59.1715 11.612 59.0515 11.474C58.9315 11.33 58.8445 11.168 58.7905 10.988C58.7365 10.802 58.7125 10.607 58.7185 10.403H62.2015C62.2135 10.121 62.1865 9.824 62.1205 9.512C62.0605 9.2 61.9465 8.912 61.7785 8.648C61.6165 8.384 61.3975 8.168 61.1215 8C60.8515 7.826 60.5095 7.739 60.0955 7.739C59.7775 7.739 59.4835 7.799 59.2135 7.919C58.9495 8.039 58.7185 8.207 58.5205 8.423C58.3285 8.639 58.1785 8.894 58.0705 9.188C57.9625 9.482 57.9085 9.806 57.9085 10.16C57.9205 10.514 57.9715 10.841 58.0615 11.141C58.1575 11.441 58.2985 11.699 58.4845 11.915C58.6705 12.131 58.8985 12.299 59.1685 12.419C59.4445 12.539 59.7685 12.599 60.1405 12.599C60.6685 12.599 61.1065 12.467 61.4545 12.203C61.8025 11.939 62.0275 11.546 62.1295 11.024ZM5.53 17.646V25.5H7.147V19.989H7.169L9.094 25.5H10.425L12.35 19.934H12.372V25.5H13.989V17.646H11.558L9.82 23.047H9.798L7.961 17.646H5.53ZM16.7305 22.662C16.7305 22.4347 16.7525 22.211 16.7965 21.991C16.8405 21.771 16.9138 21.5767 17.0165 21.408C17.1265 21.2393 17.2695 21.1037 17.4455 21.001C17.6215 20.891 17.8415 20.836 18.1055 20.836C18.3695 20.836 18.5895 20.891 18.7655 21.001C18.9488 21.1037 19.0918 21.2393 19.1945 21.408C19.3045 21.5767 19.3815 21.771 19.4255 21.991C19.4695 22.211 19.4915 22.4347 19.4915 22.662C19.4915 22.8893 19.4695 23.113 19.4255 23.333C19.3815 23.5457 19.3045 23.74 19.1945 23.916C19.0918 24.0847 18.9488 24.2203 18.7655 24.323C18.5895 24.4257 18.3695 24.477 18.1055 24.477C17.8415 24.477 17.6215 24.4257 17.4455 24.323C17.2695 24.2203 17.1265 24.0847 17.0165 23.916C16.9138 23.74 16.8405 23.5457 16.7965 23.333C16.7525 23.113 16.7305 22.8893 16.7305 22.662ZM15.1685 22.662C15.1685 23.1167 15.2382 23.5273 15.3775 23.894C15.5168 24.2607 15.7148 24.576 15.9715 24.84C16.2282 25.0967 16.5362 25.2947 16.8955 25.434C17.2548 25.5733 17.6582 25.643 18.1055 25.643C18.5528 25.643 18.9562 25.5733 19.3155 25.434C19.6822 25.2947 19.9938 25.0967 20.2505 24.84C20.5072 24.576 20.7052 24.2607 20.8445 23.894C20.9838 23.5273 21.0535 23.1167 21.0535 22.662C21.0535 22.2073 20.9838 21.7967 20.8445 21.43C20.7052 21.056 20.5072 20.7407 20.2505 20.484C19.9938 20.22 19.6822 20.0183 19.3155 19.879C18.9562 19.7323 18.5528 19.659 18.1055 19.659C17.6582 19.659 17.2548 19.7323 16.8955 19.879C16.5362 20.0183 16.2282 20.22 15.9715 20.484C15.7148 20.7407 15.5168 21.056 15.3775 21.43C15.2382 21.7967 15.1685 22.2073 15.1685 22.662ZM26.2381 22.662C26.2381 22.8967 26.2124 23.124 26.1611 23.344C26.1098 23.564 26.0291 23.7583 25.9191 23.927C25.8091 24.0957 25.6698 24.2313 25.5011 24.334C25.3398 24.4293 25.1418 24.477 24.9071 24.477C24.6798 24.477 24.4818 24.4293 24.3131 24.334C24.1444 24.2313 24.0051 24.0957 23.8951 23.927C23.7851 23.7583 23.7044 23.564 23.6531 23.344C23.6018 23.124 23.5761 22.8967 23.5761 22.662C23.5761 22.42 23.6018 22.189 23.6531 21.969C23.7044 21.749 23.7851 21.5547 23.8951 21.386C24.0051 21.2173 24.1444 21.0853 24.3131 20.99C24.4818 20.8873 24.6798 20.836 24.9071 20.836C25.1418 20.836 25.3398 20.8873 25.5011 20.99C25.6698 21.0853 25.8091 21.2173 25.9191 21.386C26.0291 21.5547 26.1098 21.749 26.1611 21.969C26.2124 22.189 26.2381 22.42 26.2381 22.662ZM22.0691 17.646V25.5H23.5541V24.774H23.5761C23.7448 25.0893 23.9941 25.313 24.3241 25.445C24.6541 25.577 25.0281 25.643 25.4461 25.643C25.7321 25.643 26.0144 25.5843 26.2931 25.467C26.5718 25.3497 26.8211 25.17 27.0411 24.928C27.2684 24.686 27.4518 24.378 27.5911 24.004C27.7304 23.6227 27.8001 23.1717 27.8001 22.651C27.8001 22.1303 27.7304 21.683 27.5911 21.309C27.4518 20.9277 27.2684 20.616 27.0411 20.374C26.8211 20.132 26.5718 19.9523 26.2931 19.835C26.0144 19.7177 25.7321 19.659 25.4461 19.659C25.0941 19.659 24.7531 19.7287 24.4231 19.868C24.1004 20 23.8438 20.2127 23.6531 20.506H23.6311V17.646H22.0691ZM30.3997 18.933V17.646H28.8377V18.933H30.3997ZM28.8377 19.813V25.5H30.3997V19.813H28.8377ZM31.6736 17.646V25.5H33.2356V17.646H31.6736ZM38.2936 22.046H35.7526C35.7599 21.936 35.7819 21.8113 35.8186 21.672C35.8626 21.5327 35.9322 21.4007 36.0276 21.276C36.1302 21.1513 36.2622 21.0487 36.4236 20.968C36.5922 20.88 36.8012 20.836 37.0506 20.836C37.4319 20.836 37.7142 20.9387 37.8976 21.144C38.0882 21.3493 38.2202 21.65 38.2936 22.046ZM35.7526 23.036H39.8556C39.8849 22.596 39.8482 22.1743 39.7456 21.771C39.6429 21.3677 39.4742 21.0083 39.2396 20.693C39.0122 20.3777 38.7189 20.1283 38.3596 19.945C38.0002 19.7543 37.5786 19.659 37.0946 19.659C36.6619 19.659 36.2659 19.736 35.9066 19.89C35.5546 20.044 35.2502 20.2567 34.9936 20.528C34.7369 20.792 34.5389 21.1073 34.3996 21.474C34.2602 21.8407 34.1906 22.2367 34.1906 22.662C34.1906 23.102 34.2566 23.5053 34.3886 23.872C34.5279 24.2387 34.7222 24.554 34.9716 24.818C35.2209 25.082 35.5252 25.2873 35.8846 25.434C36.2439 25.5733 36.6472 25.643 37.0946 25.643C37.7399 25.643 38.2899 25.4963 38.7446 25.203C39.1992 24.9097 39.5366 24.422 39.7566 23.74H38.3816C38.3302 23.916 38.1909 24.0847 37.9636 24.246C37.7362 24.4 37.4649 24.477 37.1496 24.477C36.7096 24.477 36.3722 24.3633 36.1376 24.136C35.9029 23.9087 35.7746 23.542 35.7526 23.036ZM45.9885 22.464L47.0115 19.582H47.0335L48.0235 22.464H45.9885ZM46.1535 17.646L43.1835 25.5H44.9215L45.5375 23.751H48.4745L49.0685 25.5H50.8615L47.9245 17.646H46.1535ZM54.2448 24.477C53.9955 24.477 53.7828 24.4257 53.6068 24.323C53.4308 24.2203 53.2878 24.0883 53.1778 23.927C53.0751 23.7583 52.9981 23.564 52.9468 23.344C52.9028 23.124 52.8808 22.9003 52.8808 22.673C52.8808 22.4383 52.9028 22.211 52.9468 21.991C52.9908 21.771 53.0641 21.5767 53.1668 21.408C53.2768 21.2393 53.4161 21.1037 53.5848 21.001C53.7608 20.891 53.9771 20.836 54.2338 20.836C54.4831 20.836 54.6921 20.891 54.8608 21.001C55.0368 21.1037 55.1798 21.243 55.2898 21.419C55.3998 21.5877 55.4768 21.782 55.5208 22.002C55.5721 22.222 55.5978 22.4457 55.5978 22.673C55.5978 22.9003 55.5758 23.124 55.5318 23.344C55.4878 23.564 55.4108 23.7583 55.3008 23.927C55.1981 24.0883 55.0588 24.2203 54.8828 24.323C54.7141 24.4257 54.5015 24.477 54.2448 24.477ZM51.3738 19.813V27.491H52.9358V24.796H52.9578C53.1485 25.0747 53.3905 25.2873 53.6838 25.434C53.9845 25.5733 54.3108 25.643 54.6628 25.643C55.0808 25.643 55.4438 25.5623 55.7518 25.401C56.0671 25.2397 56.3275 25.0233 56.5328 24.752C56.7455 24.4807 56.9031 24.169 57.0058 23.817C57.1085 23.465 57.1598 23.0983 57.1598 22.717C57.1598 22.3137 57.1085 21.9287 57.0058 21.562C56.9031 21.188 56.7455 20.8617 56.5328 20.583C56.3201 20.3043 56.0525 20.0807 55.7298 19.912C55.4071 19.7433 55.0221 19.659 54.5748 19.659C54.2228 19.659 53.9001 19.7287 53.6068 19.868C53.3135 20.0073 53.0715 20.231 52.8808 20.539H52.8588V19.813H51.3738ZM60.9694 24.477C60.7201 24.477 60.5074 24.4257 60.3314 24.323C60.1554 24.2203 60.0124 24.0883 59.9024 23.927C59.7997 23.7583 59.7227 23.564 59.6714 23.344C59.6274 23.124 59.6054 22.9003 59.6054 22.673C59.6054 22.4383 59.6274 22.211 59.6714 21.991C59.7154 21.771 59.7887 21.5767 59.8914 21.408C60.0014 21.2393 60.1407 21.1037 60.3094 21.001C60.4854 20.891 60.7017 20.836 60.9584 20.836C61.2077 20.836 61.4167 20.891 61.5854 21.001C61.7614 21.1037 61.9044 21.243 62.0144 21.419C62.1244 21.5877 62.2014 21.782 62.2454 22.002C62.2967 22.222 62.3224 22.4457 62.3224 22.673C62.3224 22.9003 62.3004 23.124 62.2564 23.344C62.2124 23.564 62.1354 23.7583 62.0254 23.927C61.9227 24.0883 61.7834 24.2203 61.6074 24.323C61.4387 24.4257 61.2261 24.477 60.9694 24.477ZM58.0984 19.813V27.491H59.6604V24.796H59.6824C59.8731 25.0747 60.1151 25.2873 60.4084 25.434C60.7091 25.5733 61.0354 25.643 61.3874 25.643C61.8054 25.643 62.1684 25.5623 62.4764 25.401C62.7917 25.2397 63.0521 25.0233 63.2574 24.752C63.4701 24.4807 63.6277 24.169 63.7304 23.817C63.8331 23.465 63.8844 23.0983 63.8844 22.717C63.8844 22.3137 63.8331 21.9287 63.7304 21.562C63.6277 21.188 63.4701 20.8617 63.2574 20.583C63.0447 20.3043 62.7771 20.0807 62.4544 19.912C62.1317 19.7433 61.7467 19.659 61.2994 19.659C60.9474 19.659 60.6247 19.7287 60.3314 19.868C60.0381 20.0073 59.7961 20.231 59.6054 20.539H59.5834V19.813H58.0984Z" fill="white"/>
<rect x="0.5" y="0.5" width="68" height="31" rx="2.5" stroke="white"/>
</svg>
