<svg width="30" height="30" viewBox="0 0 30 30" fill="none" xmlns="http://www.w3.org/2000/svg">
<path d="M15 5C13.0222 5 11.0888 5.58649 9.4443 6.6853C7.79981 7.78412 6.51808 9.3459 5.76121 11.1732C5.00433 13.0004 4.8063 15.0111 5.19215 16.9509C5.578 18.8907 6.53041 20.6725 7.92894 22.0711C9.32746 23.4696 11.1093 24.422 13.0491 24.8078C14.9889 25.1937 16.9996 24.9957 18.8268 24.2388C20.6541 23.4819 22.2159 22.2002 23.3147 20.5557C24.4135 18.9112 25 16.9778 25 15C25 12.3478 23.9464 9.8043 22.0711 7.92893C20.1957 6.05357 17.6522 5 15 5ZM15 23.2982C13.3588 23.2982 11.7544 22.8115 10.3898 21.8997C9.02515 20.9879 7.96155 19.6919 7.33348 18.1756C6.70541 16.6593 6.54108 14.9908 6.86127 13.3811C7.18146 11.7714 7.97178 10.2928 9.1323 9.1323C10.2928 7.97178 11.7714 7.18145 13.3811 6.86127C14.9908 6.54108 16.6593 6.70541 18.1756 7.33348C19.6919 7.96155 20.9879 9.02515 21.8997 10.3898C22.8115 11.7544 23.2982 13.3588 23.2982 15C23.2982 17.2008 22.4239 19.3115 20.8677 20.8677C19.3115 22.4239 17.2008 23.2982 15 23.2982Z" fill="#10155A"/>
<path d="M13.5253 19.6347H10.3668C10.1599 19.556 9.9846 19.4113 9.868 19.2231C9.7514 19.0348 9.69997 18.8135 9.72164 18.5931C9.76601 17.783 10.3119 17.9585 10.8037 17.4136C11.2956 16.8687 11.7334 16.3653 11.7412 14.4239C11.7469 13.1171 12.0662 10.6752 14.1522 10.1254C14.1983 9.95744 14.2971 9.80866 14.4341 9.70104C14.571 9.59342 14.739 9.53264 14.9131 9.52767C15.0873 9.52271 15.2584 9.5738 15.4013 9.67344C15.5442 9.77307 15.6513 9.91597 15.7069 10.0811C17.9675 10.5257 18.3041 13.0776 18.3108 14.421C18.3185 16.3672 18.7564 16.8697 19.2482 17.4107C19.7401 17.9518 20.285 17.7859 20.3303 18.5931C20.3511 18.8126 20.2995 19.0328 20.1833 19.2202C20.0671 19.4076 19.8929 19.5518 19.6871 19.6308L16.5556 19.6222C16.4246 19.9137 16.2123 20.1613 15.9441 20.3354C15.676 20.5094 15.3634 20.6024 15.0437 20.6033C14.7241 20.6043 14.4109 20.513 14.1418 20.3405C13.8727 20.1681 13.659 19.9216 13.5263 19.6308L13.5253 19.6347Z" fill="#10155A"/>
</svg>
