<svg width="19" height="28" viewBox="0 0 19 28" fill="none" xmlns="http://www.w3.org/2000/svg">
    <g clip-path="url(#clip0_870_7823)">
        <path d="M1.30901 15.2309L14.809 26.4809C15.1377 26.7545 15.5376 26.9288 15.9619 26.9833C16.3861 27.0379 16.8171 26.9705 17.2043 26.7889C17.5916 26.6074 17.9192 26.3193 18.1486 25.9584C18.3781 25.5974 18.5 25.1786 18.5 24.7509V2.25086C18.5 1.82315 18.3781 1.4043 18.1486 1.04335C17.9192 0.682403 17.5916 0.394302 17.2043 0.21278C16.8171 0.0312589 16.3861 -0.0361694 15.9619 0.0183914C15.5376 0.0729522 15.1377 0.247243 14.809 0.520857L1.30901 11.7709C1.05635 11.9827 0.853176 12.2473 0.713776 12.5461C0.574377 12.8449 0.502136 13.1706 0.502136 13.5004C0.502136 13.8301 0.574377 14.1558 0.713776 14.4546C0.853176 14.7534 1.05635 15.018 1.30901 15.2299V15.2309Z" fill="#C4C4C4"/>
    </g>
    <defs>
        <clipPath id="clip0_870_7823">
            <rect width="19" height="28" fill="white"/>
        </clipPath>
    </defs>
</svg>