<svg width="19" height="28" viewBox="0 0 19 28" fill="none" xmlns="http://www.w3.org/2000/svg">
    <path d="M1.31168 15.6587L14.713 27.0261C15.0393 27.3026 15.4377 27.4803 15.8614 27.5386C16.2851 27.5969 16.7167 27.5332 17.1055 27.3551C17.4944 27.1769 17.8244 26.8917 18.0571 26.5328C18.2897 26.1738 18.4152 25.7561 18.419 25.3284L18.6153 2.82922C18.619 2.40152 18.5008 1.98162 18.2745 1.61869C18.0482 1.25575 17.7231 0.964805 17.3375 0.779911C16.9518 0.595017 16.5214 0.52383 16.0967 0.574687C15.6721 0.625544 15.2707 0.796339 14.9395 1.06707L1.34188 12.1988C1.08738 12.4085 0.881906 12.6713 0.739904 12.9689C0.597902 13.2665 0.522822 13.5915 0.519945 13.9212C0.517068 14.2509 0.586463 14.5773 0.72325 14.8773C0.860037 15.1773 1.06089 15.4437 1.31169 15.6577L1.31168 15.6587Z" fill="#3491FF"/>
</svg>
