<svg width="7" height="5" viewBox="0 0 7 5" fill="none" xmlns="http://www.w3.org/2000/svg">
<path d="M3.55535 1.66292L6.15994 4.21635C6.25241 4.30667 6.37773 4.35731 6.50832 4.35712C6.63892 4.35693 6.76408 4.30594 6.85629 4.21535C6.9485 4.12475 7.00019 4.00199 7 3.87407C6.99981 3.74614 6.94775 3.62353 6.85527 3.5332L3.90535 0.640345C3.81578 0.552941 3.69526 0.502714 3.56886 0.500107C3.44246 0.497499 3.31989 0.542712 3.22664 0.626345L0.253686 3.5312C0.161208 3.62153 0.109147 3.74414 0.108956 3.87207C0.108764 3.99999 0.160458 4.12275 0.252665 4.21335C0.344872 4.30394 0.470039 4.35493 0.600631 4.35512C0.731223 4.35531 0.856541 4.30467 0.949019 4.21435L3.55535 1.66292Z" fill="#3491FF"/>
</svg>
