<svg width="14" height="24" viewBox="0 0 14 24" fill="none" xmlns="http://www.w3.org/2000/svg">
    <path d="M4.07021 11.8102L13.0072 2.88022C13.3233 2.56315 13.5006 2.13349 13.4999 1.68574C13.4993 1.238 13.3208 0.808857 13.0037 0.492719C12.6866 0.176581 12.257 -0.000654561 11.8092 1.81665e-06C11.3615 0.000658194 10.9323 0.179153 10.6162 0.496219L0.491208 10.6102C0.185292 10.9173 0.00949959 11.3305 0.000373853 11.7639C-0.00875188 12.1973 0.149491 12.6175 0.442208 12.9372L10.6092 23.1302C10.9253 23.4473 11.3545 23.6258 11.8022 23.6264C12.25 23.6271 12.6796 23.4499 12.9967 23.1337C13.3138 22.8176 13.4923 22.3884 13.4929 21.9407C13.4936 21.493 13.3163 21.0633 13.0002 20.7462L4.07021 11.8102Z" fill="#3585E5"/>
</svg>
