<svg width="7" height="12" viewBox="0 0 7 12" fill="none" xmlns="http://www.w3.org/2000/svg">
<path d="M2.17901 6.48201L6.30901 2.35201C6.42198 2.23862 6.48541 2.08507 6.48541 1.92501C6.48541 1.76494 6.42198 1.6114 6.30901 1.49801L5.94701 1.13601C5.8912 1.07947 5.82471 1.03458 5.75141 1.00394C5.67811 0.973297 5.59946 0.95752 5.52001 0.95752C5.44057 0.95752 5.36191 0.973297 5.28861 1.00394C5.21531 1.03458 5.14882 1.07947 5.09301 1.13601L0.17601 6.05301C0.0630966 6.16704 -0.000244141 6.32103 -0.000244141 6.48151C-0.000244141 6.64199 0.0630966 6.79598 0.17601 6.91001L5.08901 11.822C5.14482 11.8785 5.21131 11.9234 5.28461 11.9541C5.35791 11.9847 5.43657 12.0005 5.51601 12.0005C5.59546 12.0005 5.67411 11.9847 5.74741 11.9541C5.82071 11.9234 5.8872 11.8785 5.94301 11.822L6.30502 11.46C6.36156 11.4042 6.40644 11.3377 6.43708 11.2644C6.46772 11.1911 6.48351 11.1125 6.48351 11.033C6.48351 10.9536 6.46772 10.8749 6.43708 10.8016C6.40644 10.7283 6.36156 10.6618 6.30502 10.606L2.17901 6.48201Z" fill="#4B4B4B"/>
</svg>
