<svg width="11" height="11" viewBox="0 0 11 11" fill="none" xmlns="http://www.w3.org/2000/svg">
<rect x="11" y="11" width="11" height="11" rx="3" transform="rotate(-180 11 11)" fill="#C4C4C4"/>
<path d="M6.44581 5.45033L4.13481 7.75933C4.05483 7.84165 4.01049 7.95214 4.01139 8.06691C4.01229 8.18168 4.05835 8.29147 4.1396 8.37253C4.22085 8.45358 4.33076 8.49938 4.44553 8.49999C4.56029 8.50061 4.67069 8.456 4.75281 8.37583L7.37381 5.75983C7.45244 5.6805 7.49758 5.574 7.49991 5.46233C7.50223 5.35066 7.46156 5.24237 7.38631 5.15983L4.75731 2.52535C4.67519 2.44515 4.56479 2.40055 4.45003 2.40115C4.33526 2.4018 4.22535 2.44755 4.1441 2.52865C4.06285 2.6097 4.01679 2.7195 4.01589 2.83425C4.01499 2.949 4.05933 3.0595 4.13931 3.14185L6.44581 5.45033Z" fill="white"/>
</svg>
