<svg width="11" height="11" viewBox="0 0 11 11" fill="none" xmlns="http://www.w3.org/2000/svg">
<rect width="11" height="11" rx="3" fill="#C4C4C4"/>
<path d="M4.55419 5.54967L6.86519 3.24067C6.94517 3.15835 6.98951 3.04786 6.98861 2.93309C6.98771 2.81832 6.94165 2.70853 6.8604 2.62747C6.77915 2.54642 6.66924 2.50062 6.55447 2.50001C6.43971 2.49939 6.32931 2.544 6.24719 2.62417L3.62619 5.24017C3.54756 5.3195 3.50242 5.426 3.50009 5.53767C3.49777 5.64934 3.53844 5.75763 3.61369 5.84017L6.24269 8.47465C6.32481 8.55485 6.43521 8.59945 6.54997 8.59885C6.66474 8.5982 6.77465 8.55245 6.8559 8.47135C6.93715 8.3903 6.98321 8.2805 6.98411 8.16575C6.98501 8.051 6.94067 7.9405 6.86069 7.85815L4.55419 5.54967Z" fill="white"/>
</svg>
