<svg width="7" height="12" viewBox="0 0 7 12" fill="none" xmlns="http://www.w3.org/2000/svg">
<path d="M4.80592 6.48201L0.675911 2.35201C0.56294 2.23862 0.499512 2.08507 0.499512 1.92501C0.499512 1.76494 0.56294 1.6114 0.675911 1.49801L1.03791 1.13601C1.09372 1.07947 1.16021 1.03458 1.23351 1.00394C1.30681 0.973297 1.38547 0.95752 1.46491 0.95752C1.54436 0.95752 1.62301 0.973297 1.69631 1.00394C1.76961 1.03458 1.8361 1.07947 1.89191 1.13601L6.80891 6.05301C6.92183 6.16704 6.98517 6.32103 6.98517 6.48151C6.98517 6.64199 6.92183 6.79598 6.80891 6.91001L1.89591 11.822C1.8401 11.8785 1.77362 11.9234 1.70032 11.9541C1.62702 11.9847 1.54836 12.0005 1.46891 12.0005C1.38946 12.0005 1.31081 11.9847 1.23751 11.9541C1.16421 11.9234 1.09773 11.8785 1.04192 11.822L0.679916 11.46C0.623377 11.4042 0.578484 11.3377 0.547844 11.2644C0.517204 11.1911 0.501427 11.1125 0.501427 11.033C0.501427 10.9536 0.517204 10.8749 0.547844 10.8016C0.578484 10.7283 0.623377 10.6618 0.679916 10.606L4.80592 6.48201Z" fill="#4B4B4B"/>
</svg>
