<svg width="12" height="12" viewBox="0 0 12 12" fill="none" xmlns="http://www.w3.org/2000/svg">
    <path d="M0.270995 0.0337696C0.152549 0.085784 0.0312149 0.233159 0.0109925 0.348746C0.00232576 0.400761 -0.00345208 1.10585 0.00232576 1.92074C0.0109925 3.3627 0.0138814 3.40026 0.0716597 3.47829C0.184327 3.63144 0.276773 3.67768 0.458775 3.67768C0.640776 3.67768 0.733222 3.63144 0.845889 3.47829C0.903668 3.40315 0.906557 3.35692 0.915223 2.48423L0.92389 1.57109L2.4319 3.07662C4.06703 4.7093 3.9977 4.65439 4.26348 4.60238C4.40503 4.57637 4.57837 4.40299 4.60437 4.26139C4.65637 3.99554 4.71126 4.06489 3.07902 2.42933L1.5739 0.920906L2.48679 0.912237C3.35925 0.903568 3.40547 0.900678 3.48058 0.842884C3.63369 0.730186 3.67992 0.637716 3.67992 0.455665C3.67992 0.273614 3.63369 0.181144 3.48058 0.0684462C3.40258 0.00776243 3.36502 0.00776243 1.88012 0.00198317C0.65811 -0.00379658 0.340329 0.00198317 0.270995 0.0337696Z" fill="#3491FF"/>
    <path d="M8.59103 0.0337696C8.31947 0.152247 8.2328 0.522128 8.42347 0.747524C8.56214 0.912237 8.60547 0.918016 9.56459 0.918016H10.4399L8.93192 2.42644C7.29968 4.06489 7.35457 3.99554 7.40657 4.26139C7.43257 4.40299 7.60591 4.57637 7.74747 4.60238C8.01325 4.65439 7.94391 4.7093 9.57904 3.07662L11.0871 1.57109L11.0957 2.48423C11.1044 3.35692 11.1073 3.40315 11.1651 3.47829C11.2777 3.63144 11.3702 3.67768 11.5522 3.67768C11.7342 3.67768 11.8266 3.63144 11.9393 3.47829C12 3.40026 12 3.36848 12 1.84272C12 0.31696 12 0.285173 11.9393 0.207151C11.9075 0.163806 11.8439 0.100233 11.8006 0.0684462C11.7226 0.00776243 11.6851 0.00776243 10.2002 0.00198317C8.97814 -0.00379658 8.66036 0.00198317 8.59103 0.0337696Z" fill="#3491FF"/>
    <path d="M3.9688 7.43139C3.92258 7.45451 3.22057 8.13648 2.40879 8.94848L0.93544 10.4251L0.920995 9.51775C0.90655 8.65662 0.903661 8.60461 0.845883 8.52948C0.733215 8.37632 0.64077 8.33009 0.458768 8.33009C0.276767 8.33009 0.184321 8.37632 0.0716536 8.52948C0.0109863 8.6075 0.0109863 8.63928 0.0109863 10.165C0.0109863 11.6908 0.0109863 11.7226 0.0716536 11.8006C0.103432 11.844 0.166988 11.9075 0.210322 11.9393C0.288322 12 0.3201 12 1.84545 12C3.3708 12 3.40257 12 3.48057 11.9393C3.63369 11.8266 3.67991 11.7341 3.67991 11.5521C3.67991 11.37 3.63369 11.2776 3.48057 11.1649C3.40546 11.1071 3.35924 11.1042 2.48679 11.0955L1.57389 11.0869L3.07902 9.57844C4.40503 8.25206 4.58703 8.05846 4.60436 7.96021C4.67659 7.57588 4.31258 7.27535 3.9688 7.43139Z" fill="#3491FF"/>
    <path d="M7.66659 7.43139C7.54815 7.48341 7.42681 7.63078 7.4037 7.75215C7.35748 8.01222 7.30259 7.94865 8.93194 9.57843L10.4371 11.0869L9.52417 11.0955C8.65172 11.1042 8.60549 11.1071 8.53038 11.1649C8.37727 11.2776 8.33105 11.37 8.33105 11.5521C8.33105 11.7341 8.37727 11.8266 8.53038 11.9393C8.60838 12 8.64016 12 10.1655 12C11.6909 12 11.7226 12 11.8006 11.9393C11.844 11.9075 11.9075 11.844 11.9393 11.8006C12 11.7226 12 11.6908 12 10.165C12 8.63928 12 8.6075 11.9393 8.52948C11.8266 8.37632 11.7342 8.33009 11.5522 8.33009C11.3702 8.33009 11.2777 8.37632 11.1651 8.52948C11.1073 8.60461 11.1044 8.65662 11.09 9.51775L11.0755 10.4251L9.60217 8.94848C8.76438 8.11047 8.08838 7.45451 8.03638 7.43139C7.92082 7.38227 7.77926 7.38227 7.66659 7.43139Z" fill="#3491FF"/>
</svg>
