<svg width="14" height="24" viewBox="0 0 14 24" fill="none" xmlns="http://www.w3.org/2000/svg">
    <path d="M9.92979 12.1898L0.992792 21.1198C0.676654 21.4368 0.499418 21.8665 0.500074 22.3143C0.500731 22.762 0.679226 23.1911 0.996292 23.5073C1.31336 23.8234 1.74302 24.0007 2.19077 24C2.63851 23.9993 3.06765 23.8208 3.38379 23.5038L13.5088 13.3898C13.8147 13.0827 13.9905 12.6695 13.9996 12.2361C14.0088 11.8027 13.8505 11.3825 13.5578 11.0628L3.39079 0.869781C3.07465 0.552715 2.64551 0.37422 2.19777 0.373564C1.75002 0.372908 1.32036 0.550144 1.00329 0.866282C0.686226 1.18242 0.50773 1.61156 0.507074 2.05931C0.506418 2.50705 0.683654 2.93671 0.999792 3.25378L9.92979 12.1898Z" fill="#C4C4C4"/>
</svg>
