<svg width="16" height="16" viewBox="0 0 16 16" fill="none" xmlns="http://www.w3.org/2000/svg">
    <path d="M6.83583 0.0428537C5.53597 0.214026 4.31785 0.581514 3.23072 1.34115C2.21636 2.04994 1.37096 3.00159 0.805602 4.10449C-0.714681 7.07029 -0.035356 10.8594 2.43935 13.0976C3.31847 13.8928 4.35537 14.4455 5.48758 14.7815C6.41533 15.0568 7.4604 15.1155 8.41857 14.9994C9.51842 14.8661 10.5511 14.4913 11.4961 13.9173C12.2228 13.476 12.865 12.8853 13.3954 12.2233C16.0959 8.85269 15.298 3.72404 11.7306 1.30083C11.0278 0.823467 10.2383 0.464717 9.4151 0.254039C8.60313 0.0462402 7.67228 -0.0672945 6.83583 0.0428537Z" fill="#4BAF4F"/>
    <path d="M6.42592 9.05807C5.82053 8.45268 5.24093 7.76436 4.5794 7.22119C4.33464 7.02025 3.90563 7.00234 3.78376 7.35822C3.64108 7.77492 4.06035 8.07007 4.31561 8.32533L5.69318 9.70289C6.06078 10.0705 6.40227 10.4061 6.86557 9.96551C8.04556 8.84341 9.17267 7.65958 10.3241 6.50811C10.6387 6.19359 11.4529 5.65933 11.2261 5.13099C10.9131 4.40223 10.1449 5.30981 9.88449 5.5702L7.59832 7.85637C7.21457 8.24012 6.73843 8.61447 6.42592 9.05807Z" fill="#FCFEFC"/>
</svg>
