<svg width="20" height="20" viewBox="0 0 20 20" fill="none" xmlns="http://www.w3.org/2000/svg">
<path d="M8.74438 10.0791L12.5745 13.7999C12.71 13.932 12.786 14.111 12.7857 14.2976C12.7854 14.4842 12.7089 14.663 12.573 14.7947C12.4371 14.9264 12.253 15.0003 12.0611 15C11.8692 14.9997 11.6853 14.9254 11.5498 14.7932L7.21052 10.5791C7.07941 10.4511 7.00407 10.279 7.00016 10.0984C6.99625 9.9178 7.06407 9.74271 7.18952 9.60949L11.5468 5.36241C11.6823 5.2303 11.8662 5.15593 12.0581 5.15565C12.25 5.15538 12.4341 5.22923 12.57 5.36095C12.7059 5.49268 12.7824 5.67149 12.7827 5.85805C12.783 6.04461 12.707 6.22363 12.5715 6.35574L8.74438 10.0791Z" fill="white"/>
</svg>
