<svg width="22" height="22" viewBox="0 0 26 26" fill="none" xmlns="http://www.w3.org/2000/svg">
    <rect x="1" y="1" width="24" height="24" rx="4" fill="#3585E5" stroke="#DEEDFF" stroke-width="2"/>
    <path d="M11.1084 13.0993L15.7304 8.48134C15.8903 8.31671 15.979 8.09571 15.9772 7.86618C15.9754 7.63665 15.8833 7.41706 15.7208 7.25495C15.5583 7.09284 15.3385 7.00125 15.1089 7.00001C14.8794 6.99878 14.6586 7.08799 14.4944 7.24834L9.25238 12.4803C9.09513 12.639 9.00484 12.852 9.00019 13.0753C8.99554 13.2987 9.07687 13.5153 9.22738 13.6803L14.4854 18.9493C14.6496 19.1097 14.8704 19.1989 15.0999 19.1977C15.3295 19.1964 15.5493 19.1049 15.7118 18.9427C15.8743 18.7806 15.9664 18.561 15.9682 18.3315C15.97 18.102 15.8813 17.881 15.7214 17.7163L11.1084 13.0993Z" fill="white"/>
</svg>
