<svg width="17" height="17" viewBox="0 0 17 17" fill="none" xmlns="http://www.w3.org/2000/svg">
<rect width="17" height="17" rx="8.5" fill="black"/>
<path d="M7.12272 5.28778L6.09362 3.05469C4.68685 3.62247 3.82758 4.68958 3.16602 6.04312L5.62216 6.74524C5.95558 6.11292 6.48095 5.60263 7.12272 5.28778Z" fill="#FAA819"/>
<path d="M11.724 9.48562H14.459C14.4878 9.03338 14.4751 8.57945 14.421 8.12954C14.4007 7.9369 14.3677 7.6226 14.3297 7.42236C14.1698 6.59486 13.8415 5.80903 13.3654 5.11359C12.8893 4.41815 12.2754 3.82792 11.5618 3.37948C10.7833 2.9003 9.89483 2.62888 8.98144 2.59118C8.51162 2.56907 8.04079 2.59796 7.5772 2.67736C7.5772 2.67736 7.83067 4.95861 7.84335 5.03972C8.09275 4.98237 8.34785 4.95346 8.60376 4.95354C9.33873 4.95332 10.0534 5.19493 10.6374 5.6411C11.2214 6.08726 11.6425 6.7132 11.8355 7.42236H2.81192C2.68851 7.97465 2.63066 8.53957 2.63956 9.10541C2.63956 9.23468 2.63956 9.35888 2.65477 9.49576C2.88036 12.8365 5.50633 14.9986 8.61137 15.0164C11.2576 15.0341 13.2372 13.5234 14.0585 11.341H11.212C10.9351 11.7792 10.5509 12.1394 10.0958 12.3874C9.64063 12.6354 9.12966 12.7629 8.61137 12.7579C8.07568 12.7811 7.54339 12.6623 7.06843 12.4134C6.59347 12.1646 6.19273 11.7946 5.90682 11.341C5.54995 10.7793 5.32146 10.1458 5.23765 9.48562H11.724Z" fill="#EE3028"/>
</svg>
