<svg width="22" height="22" viewBox="0 0 22 22" fill="none" xmlns="http://www.w3.org/2000/svg">
    <rect x="22" y="22" width="22" height="22" rx="3" transform="rotate(-180 22 22)" fill="#C4C4C4"/>
    <path d="M12.8916 10.9007L8.26962 15.5187C8.10967 15.6833 8.02099 15.9043 8.02278 16.1338C8.02458 16.3634 8.1167 16.5829 8.2792 16.7451C8.44171 16.9072 8.66152 16.9988 8.89106 17C9.12059 17.0012 9.34138 16.912 9.50562 16.7517L14.7476 11.5197C14.9049 11.361 14.9952 11.148 14.9998 10.9247C15.0045 10.7013 14.9231 10.4847 14.7726 10.3197L9.51462 5.0507C9.35038 4.8903 9.12959 4.8011 8.90006 4.8023C8.67052 4.8036 8.45071 4.8951 8.2882 5.0573C8.1257 5.2194 8.03358 5.439 8.03178 5.6685C8.02999 5.898 8.11867 6.119 8.27862 6.2837L12.8916 10.9007Z" fill="white"/>
</svg>
