<svg width="19" height="19" viewBox="0 0 19 19" fill="none" xmlns="http://www.w3.org/2000/svg">
    <path d="M9.47625 0.0335925C9.31091 0.128576 9.31794 -0.0543547 9.31794 4.35708V8.53281L9.39886 8.60669L9.47977 8.68408H13.6414C16.2376 8.68408 17.8242 8.67001 17.8629 8.6489C17.9895 8.58558 18.0177 8.42376 17.9931 7.98754C17.8946 6.24267 17.3141 4.67721 16.2376 3.24894C15.9632 2.8866 15.1154 2.03879 14.7531 1.76439C13.761 1.0186 12.667 0.490918 11.5518 0.230594C10.7849 0.051182 9.63455 -0.0613905 9.47625 0.0335925ZM10.6196 0.67033C11.6609 0.796974 12.7655 1.18746 13.6625 1.7468C15.1084 2.64387 16.2306 3.97715 16.8427 5.51095C17.1452 6.26729 17.2965 6.92866 17.3915 7.882L17.4091 8.08604H13.6625H9.91599V4.33949V0.592937L10.12 0.610526C10.2291 0.62108 10.4542 0.649223 10.6196 0.67033Z" fill="#4B4B4B"/>
    <path d="M7.84043 1.21561C6.01817 1.38799 4.63212 1.91567 3.24959 2.96049C2.91187 3.21729 2.08868 4.02993 1.81781 4.3782C0.276971 6.33414 -0.328106 8.87406 0.171435 11.2803C0.678011 13.7358 2.23644 15.8254 4.4316 17.0039C6.82025 18.2844 9.68733 18.3337 12.0936 17.1411C13.0082 16.6908 13.6098 16.2546 14.352 15.5123C15.0697 14.7911 15.513 14.172 15.9527 13.2749C16.4557 12.2477 16.7266 11.1923 16.797 9.98571C16.8181 9.64096 16.8111 9.56005 16.7618 9.46506C16.7301 9.40174 16.6985 9.34897 16.695 9.34546C16.6914 9.33842 14.8903 9.32787 12.6951 9.31731L8.70232 9.29972L8.68473 5.30692C8.67417 3.11176 8.66362 1.3106 8.65658 1.30708C8.54753 1.20506 8.26962 1.1734 7.84043 1.21561ZM8.09372 5.74666L8.10428 9.70428L8.20278 9.79926L8.29776 9.89776L12.2554 9.90832L16.213 9.91535L16.1989 9.99627C16.1884 10.0385 16.1743 10.2073 16.1602 10.3692C16.118 10.9953 15.907 11.8502 15.6255 12.5362C14.8938 14.3409 13.4374 15.8606 11.6398 16.6943C10.5 17.2255 9.11039 17.4753 7.85099 17.3803C3.84411 17.0707 0.765958 13.8871 0.604135 9.88369C0.49508 7.13622 1.88465 4.50836 4.25219 2.99567C5.25479 2.35541 6.50012 1.93326 7.69972 1.82773C7.88265 1.81366 8.04447 1.79607 8.05854 1.79255C8.07261 1.79255 8.0902 3.56908 8.09372 5.74666Z" fill="#4B4B4B"/>
</svg>
