<svg width="24" height="24" viewBox="0 0 20 17" fill="none" xmlns="http://www.w3.org/2000/svg">
    <path d="M13.3333 8.5C13.3333 7.46111 12.4762 6.61111 11.4286 6.61111C10.381 6.61111 9.52381 7.46111 9.52381 8.5C9.52381 9.53889 10.381 10.3889 11.4286 10.3889C12.4762 10.3889 13.3333 9.53889 13.3333 8.5ZM11.4286 0C6.69524 0 2.85714 3.80611 2.85714 8.5H0L3.80952 12.2778L7.61905 8.5H4.7619C4.7619 4.845 7.74286 1.88889 11.4286 1.88889C15.1143 1.88889 18.0952 4.845 18.0952 8.5C18.0952 12.155 15.1143 15.1111 11.4286 15.1111C9.99048 15.1111 8.65714 14.6483 7.5619 13.8833L6.20952 15.2433C7.65714 16.3389 9.46667 17 11.4286 17C16.1619 17 20 13.1939 20 8.5C20 3.80611 16.1619 0 11.4286 0Z" fill="#3491FF"/>
</svg>
