<svg width="19" height="28" viewBox="0 0 19 28" fill="none" xmlns="http://www.w3.org/2000/svg">
    <path d="M17.9179 12.4356L4.41786 1.18565C4.08912 0.912035 3.68923 0.737743 3.26501 0.683182C2.84079 0.62862 2.40981 0.696049 2.02253 0.877571C1.63525 1.05909 1.3077 1.34719 1.07824 1.70814C0.84877 2.06909 0.726889 2.48794 0.726862 2.91565L0.726862 25.4156C0.726889 25.8434 0.84877 26.2622 1.07824 26.6232C1.3077 26.9841 1.63525 27.2722 2.02253 27.4537C2.40981 27.6352 2.84079 27.7027 3.26501 27.6481C3.68923 27.5936 4.08912 27.4193 4.41786 27.1456L17.9179 15.8956C18.1705 15.6838 18.3737 15.4192 18.5131 15.1204C18.6525 14.8216 18.7247 14.4959 18.7247 14.1661C18.7247 13.8364 18.6525 13.5107 18.5131 13.2119C18.3737 12.9131 18.1705 12.6485 17.9179 12.4366V12.4356Z" fill="#3491FF"/>
</svg>
