<svg width="19" height="28" viewBox="0 0 19 28" fill="none" xmlns="http://www.w3.org/2000/svg">
    <path d="M17.691 12.7691L4.19099 1.51914C3.86225 1.24553 3.46236 1.07124 3.03814 1.01668C2.61393 0.962116 2.18295 1.02954 1.79566 1.21107C1.40838 1.39259 1.08083 1.68069 0.851368 2.04164C0.621902 2.40258 0.500021 2.82143 0.499994 3.24914L0.499994 25.7491C0.500021 26.1769 0.621902 26.5957 0.851368 26.9567C1.08083 27.3176 1.40838 27.6057 1.79566 27.7872C2.18295 27.9687 2.61393 28.0362 3.03814 27.9816C3.46236 27.927 3.86225 27.7528 4.19099 27.4791L17.691 16.2291C17.9437 16.0173 18.1468 15.7527 18.2862 15.4539C18.4256 15.1551 18.4979 14.8294 18.4979 14.4996C18.4979 14.1699 18.4256 13.8442 18.2862 13.5454C18.1468 13.2466 17.9437 12.982 17.691 12.7701V12.7691Z" fill="#C4C4C4"/>
</svg>
