<svg width="13" height="13" viewBox="0 0 13 13" fill="none" xmlns="http://www.w3.org/2000/svg">
<path fill-rule="evenodd" clip-rule="evenodd" d="M10.3208 1.24098C9.24834 0.460452 7.92794 0 6.5 0C5.07206 0 3.75166 0.460452 2.67918 1.24098L3.26762 2.04952C4.17487 1.38924 5.29051 1 6.5 1C7.70949 1 8.82513 1.38924 9.73238 2.04952L10.3208 1.24098ZM1.24098 2.67918L2.04952 3.26762C1.38924 4.17487 1 5.29051 1 6.5C1 7.70949 1.38924 8.82513 2.04952 9.73238L1.24098 10.3208C0.460452 9.24834 0 7.92794 0 6.5C0 5.07206 0.460452 3.75166 1.24098 2.67918ZM2.67918 11.759L3.26762 10.9505C4.17487 11.6108 5.29051 12 6.5 12C7.70949 12 8.82513 11.6108 9.73238 10.9505L10.3208 11.759C9.24834 12.5395 7.92794 13 6.5 13C5.07206 13 3.75166 12.5395 2.67918 11.759ZM11.759 10.3208L10.9505 9.73238C11.6108 8.82513 12 7.70949 12 6.5C12 5.29051 11.6108 4.17487 10.9505 3.26762L11.759 2.67918C12.5395 3.75166 13 5.07206 13 6.5C13 7.92794 12.5395 9.24834 11.759 10.3208Z" fill="#E34537"/>
</svg>
