<svg width="34" height="34" viewBox="0 0 34 34" fill="none" xmlns="http://www.w3.org/2000/svg">
    <path d="M16.1351 0.00988032C15.8211 0.0210396 15.555 0.0481409 15.4673 0.0784305C15.2522 0.151763 14.8697 0.470601 14.7088 0.711324C14.6418 0.810163 14.6259 0.853206 14.5829 1.03335C14.4554 1.57219 14.1351 3.44536 14.1351 3.65738C14.1351 3.69405 14.0554 3.72594 13.81 3.78492C12.9382 3.99216 11.8992 4.36999 11.0163 4.79723C10.6625 4.9694 10.4378 5.09056 9.99004 5.35679C9.8004 5.46998 9.64104 5.56244 9.63466 5.56244C9.62988 5.56244 9.3255 5.34085 8.96056 5.07143C7.94064 4.31897 7.47211 3.99535 7.29841 3.9268C7.15339 3.86782 6.98128 3.84072 6.76135 3.84072C6.5239 3.84072 6.39641 3.85825 6.23068 3.91246C6.01394 3.98419 5.751 4.20738 4.98606 4.97259C4.46494 5.49389 4.16056 5.82229 4.02351 6.01678C3.89283 6.20012 3.83068 6.47751 3.84502 6.82185C3.86096 7.18373 3.9008 7.29054 4.17809 7.70663C4.40438 8.04459 4.6259 8.35068 5.15657 9.06328L5.5741 9.62443L5.35896 9.99588C4.95737 10.6925 4.59084 11.4817 4.20996 12.4733C3.98207 13.0647 3.77649 13.7422 3.77649 13.8985C3.77649 14.0866 3.61076 14.1392 2.42988 14.3225C1.47849 14.4708 0.936653 14.584 0.780478 14.6669C0.520717 14.8055 0.198805 15.1706 0.0952191 15.4416C0.0792829 15.4847 0.0585657 15.5771 0.049004 15.6473C-0.0163347 16.1208 -0.0163347 17.962 0.049004 18.3797C0.0824701 18.5965 0.264143 18.8867 0.514343 19.1226C0.664143 19.2629 0.785259 19.3426 0.920717 19.3872C1.05777 19.4319 1.73825 19.5658 2.21474 19.6391C3.01315 19.7635 3.57251 19.8719 3.68088 19.9229C3.74303 19.9532 3.76375 19.9994 3.78924 20.1732C3.82749 20.4203 4.16853 21.5075 4.34861 21.9571C4.6259 22.649 5.1247 23.6437 5.44502 24.1459L5.58048 24.3579L5.16932 24.9127C4.62749 25.6413 4.38207 25.984 4.17171 26.3012C3.87371 26.7492 3.8498 26.8194 3.8498 27.2514C3.8498 27.5607 3.87371 27.6898 3.95817 27.8715C4.03626 28.0357 4.36135 28.4024 4.97968 29.0209C5.59801 29.6395 5.96454 29.9647 6.12869 30.0428C6.31036 30.1273 6.43944 30.1512 6.74861 30.1512C7.18048 30.1512 7.2506 30.1273 7.69841 29.8292C8.01554 29.6188 8.35817 29.3732 9.08805 28.8312L9.64104 28.4199L9.86096 28.5618C10.3884 28.9062 11.0817 29.2521 11.8833 29.5725C12.5637 29.8451 13.3207 30.0938 13.8418 30.2166C13.9343 30.2389 14.0378 30.2708 14.0713 30.2883C14.1287 30.3186 14.1319 30.3234 14.143 30.419C14.2068 30.9945 14.5207 32.7721 14.6147 33.0861C14.6594 33.236 14.7582 33.3779 14.9271 33.5421C15.088 33.6983 15.2235 33.7939 15.3845 33.8673C15.6028 33.9677 15.7972 33.9868 16.7566 33.998C17.4928 34.006 18.0522 33.99 18.3263 33.9534C18.3916 33.9438 18.4968 33.9167 18.5606 33.8912C18.8713 33.7716 19.2649 33.4081 19.3606 33.1515C19.4418 32.9331 19.8052 30.9308 19.8498 30.4525L19.8594 30.3377L19.9343 30.3074C20.0299 30.266 20.0984 30.2453 20.5255 30.1225C21.8195 29.7495 23.0976 29.1963 24.1622 28.5443L24.3629 28.4215L24.9271 28.8408C25.6347 29.3701 25.9454 29.5932 26.2849 29.8212C26.7295 30.1209 26.8155 30.1528 27.2108 30.1528C27.5805 30.1512 27.7972 30.0922 28.0299 29.9264C28.4936 29.5948 29.6745 28.4088 29.9629 27.9831C30.159 27.6946 30.2163 27.1685 30.0936 26.7811C30.0203 26.5468 29.6649 26.0334 28.4665 24.4329L28.4171 24.3659L28.5733 24.1076C28.9622 23.47 29.2761 22.8355 29.5964 22.0384C29.8068 21.5123 30.2147 20.2577 30.2147 20.1349C30.2147 20.0807 30.2418 19.9867 30.2657 19.9532C30.3072 19.899 30.8155 19.797 31.7526 19.6551C32.7199 19.51 33.0546 19.4287 33.2665 19.2868C33.4052 19.1928 33.6952 18.8994 33.7829 18.7639C33.861 18.6428 33.9215 18.461 33.9534 18.2522C34.0155 17.852 34.0155 16.1479 33.9534 15.7493C33.8976 15.3938 33.7972 15.1929 33.5406 14.9251C33.2315 14.6031 33.0227 14.5377 31.6251 14.3225C30.7805 14.1934 30.4936 14.1376 30.3629 14.0754C30.2482 14.0228 30.2275 13.9909 30.2004 13.8124C30.1622 13.5525 29.8307 12.5035 29.6378 12.0269C29.4865 11.6522 29.2952 11.2362 29.0657 10.7754C28.8267 10.2972 28.7199 10.1059 28.5462 9.83646L28.4171 9.63719L28.5064 9.51762C29.6936 7.91387 29.998 7.47866 30.0745 7.27779C30.1478 7.08649 30.1749 6.73576 30.1335 6.48707C30.1064 6.3133 30.0299 6.10925 29.947 5.99128C29.8084 5.792 29.4928 5.44607 29.0116 4.96462C28.3869 4.3381 28.0331 4.02883 27.8434 3.94115C27.547 3.80405 26.9271 3.80724 26.6498 3.94912C26.3916 4.07985 25.9996 4.35723 24.4761 5.48592L24.3566 5.57519L24.1335 5.43172C23.8147 5.22607 23.5438 5.07621 23.104 4.86259C22.2641 4.45289 21.4578 4.14202 20.5255 3.87101C20.3104 3.80883 20.0745 3.7355 19.9996 3.7084L19.8657 3.65738L19.8291 3.3784C19.7175 2.54464 19.4179 0.948858 19.343 0.803786C19.1837 0.486543 18.712 0.103937 18.4092 0.0465467C18.2068 0.00828613 16.8187 -0.0140325 16.1351 0.00988032ZM17.7526 1.00306C17.9502 1.01103 18.1414 1.02538 18.1781 1.03654C18.2673 1.06045 18.3661 1.14813 18.4155 1.24538C18.4936 1.40001 18.5478 1.67421 18.7167 2.78058C18.8618 3.72594 18.9446 4.1755 19.0084 4.36839C19.0323 4.43854 19.0514 4.46404 19.1104 4.5039C19.206 4.56926 19.4291 4.641 19.8227 4.73346C21.1598 5.04752 22.5558 5.63099 23.7446 6.37229C23.9072 6.47432 24.108 6.59229 24.1924 6.63533C24.339 6.71185 24.3486 6.71504 24.4124 6.6991C24.5558 6.66243 24.8363 6.47113 25.9215 5.67085C26.5287 5.22447 26.8331 5.01563 27.0147 4.92317C27.1247 4.86578 27.1629 4.85462 27.2426 4.85462C27.3574 4.85303 27.4291 4.8865 27.5932 5.01563C27.7462 5.13679 28.8984 6.29417 28.994 6.4233C29.1104 6.57794 29.1534 6.67997 29.1422 6.77402C29.1247 6.92228 28.9303 7.24272 28.5191 7.80228C27.7462 8.85604 27.3446 9.43791 27.3143 9.54791C27.2793 9.67864 27.308 9.74878 27.5757 10.1824C28.0649 10.9747 28.3853 11.6012 28.6769 12.3362C28.951 13.0312 29.2076 13.8777 29.3143 14.45C29.3637 14.7099 29.4004 14.8071 29.4769 14.8725C29.649 15.024 29.888 15.0813 31.147 15.2711C32.2753 15.4416 32.5908 15.5022 32.7454 15.5803C32.8426 15.6297 32.9303 15.7286 32.9558 15.8179C32.9892 15.939 33.0116 16.9465 32.9924 17.5619C32.9829 17.868 32.9669 18.1422 32.9574 18.1741C32.9303 18.2618 32.8745 18.3351 32.7932 18.3893C32.6562 18.4817 32.4108 18.5312 31.1645 18.7225C29.9375 18.9122 29.6442 18.9807 29.4928 19.113C29.4004 19.1944 29.3653 19.2804 29.3143 19.5515C29.2602 19.8416 29.155 20.2449 29.0275 20.6562C28.6626 21.8343 28.2721 22.6808 27.5534 23.8494C27.4386 24.0359 27.3335 24.2272 27.3191 24.275C27.2697 24.4281 27.2968 24.4823 27.6873 25.0418C27.8211 25.2315 28.1048 25.6269 28.3199 25.9202C28.9494 26.7843 29.1279 27.0681 29.1438 27.2291C29.1614 27.4076 29.045 27.5543 28.3024 28.2972C27.5725 29.0273 27.4211 29.1485 27.2426 29.1469C27.0769 29.1437 26.798 28.9667 25.7526 28.2015C24.7008 27.4299 24.4904 27.2912 24.3773 27.2912C24.3199 27.2912 24.1494 27.3757 23.9295 27.5096C23.0976 28.023 22.6928 28.2366 21.9598 28.5506C21.2219 28.8663 20.602 29.0735 19.8641 29.2521C19.3382 29.3796 19.1311 29.4514 19.0562 29.5327C18.9861 29.6108 18.892 30.0715 18.7327 31.1093C18.5542 32.2731 18.5 32.5632 18.4299 32.7179C18.4108 32.7625 18.3614 32.831 18.3215 32.8693C18.1972 32.9889 18.2116 32.9873 17.1183 32.9952C15.8737 33.0032 15.7876 32.9937 15.6554 32.8518C15.5199 32.7083 15.4817 32.5377 15.2586 31.0774C15.147 30.3553 15.0498 29.8276 14.9924 29.6459C14.9637 29.555 14.9478 29.5295 14.9 29.4976C14.7869 29.4227 14.5733 29.3541 14.1271 29.2521C12.8793 28.9651 11.3446 28.3147 10.1829 27.5814C9.92311 27.4156 9.68566 27.2912 9.63466 27.2912C9.4992 27.2912 9.33028 27.4028 8.15896 28.2637C7.27928 28.9109 7.02112 29.0815 6.83944 29.1341C6.72311 29.1676 6.63068 29.1453 6.49044 29.0448C6.28008 28.8982 5.31912 27.9496 5.03068 27.6069C4.90956 27.4618 4.85538 27.3534 4.85378 27.2498C4.85219 27.0856 5.01315 26.8305 5.77809 25.7847C6.63227 24.6162 6.70877 24.4998 6.70877 24.3643C6.70877 24.3117 6.58287 24.0758 6.39482 23.7745C6.16534 23.411 6.03307 23.1734 5.82271 22.759C5.3239 21.769 4.98606 20.8523 4.72629 19.7826C4.63386 19.4032 4.56534 19.1912 4.50319 19.0971C4.47131 19.0493 4.44582 19.0333 4.35498 19.0046C4.17331 18.9473 3.64582 18.85 2.9239 18.7384C1.46414 18.5152 1.29363 18.477 1.1502 18.3415C1.00837 18.2091 0.998805 18.1231 1.00677 16.878C1.01474 15.7844 1.01315 15.7987 1.13267 15.6744C1.28406 15.5182 1.45777 15.4783 3.01155 15.2471C3.91355 15.1116 4.24821 15.0447 4.39482 14.9698C4.42988 14.9522 4.49044 14.9012 4.53028 14.8566C4.61315 14.7641 4.63227 14.7115 4.68486 14.4261C4.73586 14.1471 4.96375 13.2544 5.05458 12.9754C5.17092 12.6167 5.36693 12.0954 5.48964 11.8196C5.6251 11.5135 5.74143 11.2936 5.89602 11.0544C6.06335 10.793 6.61952 9.85878 6.65936 9.7711C6.69602 9.6898 6.7008 9.59733 6.67211 9.51603C6.63386 9.41241 6.20996 8.80183 5.53108 7.87402C5.23307 7.4675 4.97331 7.07692 4.90797 6.93982C4.86813 6.85692 4.85538 6.8091 4.85538 6.74214C4.85538 6.562 4.95418 6.43924 5.69681 5.69795C6.28167 5.11129 6.46335 4.94868 6.60518 4.88332C6.71992 4.82911 6.79163 4.8339 6.94143 4.90723C7.17092 5.01723 7.34622 5.13839 8.32629 5.85577C9.11036 6.43127 9.43386 6.65127 9.55339 6.68794L9.64104 6.71663L9.78765 6.64171C9.86892 6.60185 10.0793 6.4791 10.2546 6.37069C10.9845 5.91795 11.7351 5.54809 12.5813 5.22288C13.1375 5.01085 13.6554 4.85303 14.3582 4.68564C14.653 4.61549 14.8394 4.54694 14.9175 4.48317C15.01 4.40506 15.0992 3.98579 15.2825 2.76464C15.4227 1.83204 15.5008 1.41596 15.5677 1.2677C15.6219 1.14494 15.7016 1.0732 15.8307 1.03176C15.9438 0.995089 17.1199 0.977553 17.7526 1.00306Z" fill="#3585E5"/>
    <path d="M16.4217 6.65604C16.3866 6.65923 16.2576 6.66879 16.1349 6.67836C15.687 6.71343 15.1213 6.80111 14.6528 6.91111C11.3699 7.67154 8.64959 10.0038 7.38266 13.1428C6.58903 15.1068 6.4233 17.3371 6.91732 19.4143C7.51812 21.9459 9.0719 24.1746 11.2504 25.6333C12.6815 26.5914 14.2719 27.1557 16.0472 27.3343C16.401 27.3693 17.5261 27.3741 17.8719 27.3422C19.2886 27.2083 20.5317 26.8496 21.7444 26.2247C24.0552 25.0354 25.8416 23.0092 26.7341 20.5653C27.0544 19.6901 27.2392 18.8468 27.3333 17.8297C27.3603 17.5332 27.3603 16.4842 27.3333 16.1877C27.2488 15.2694 27.0878 14.4915 26.8201 13.6928C26.103 11.5614 24.6862 9.69934 22.8121 8.42718C21.3635 7.44357 19.7492 6.86488 17.9596 6.68473C17.7141 6.66082 16.5986 6.6401 16.4217 6.65604ZM17.4894 7.58705C19.1261 7.67632 20.6273 8.15139 22.0153 9.01863C23.1133 9.70413 24.1109 10.6734 24.8392 11.7638C25.1755 12.266 25.5388 12.9515 25.7524 13.4855C26.7404 15.9518 26.6448 18.748 25.491 21.1137C25.0209 22.0782 24.4823 22.8466 23.7444 23.5991C21.3811 26.0143 17.9675 26.9788 14.6878 26.1578C11.2408 25.2953 8.53007 22.4927 7.78425 19.0254C7.10377 15.8593 8.05517 12.6167 10.3341 10.337C12.2273 8.44312 14.8297 7.44357 17.4894 7.58705Z" fill="#3585E5"/>
    <path d="M16.6288 9.36776C15.5451 9.43312 14.6129 9.67065 13.6965 10.1122C12.8917 10.5012 12.232 10.9715 11.5929 11.6124C10.4742 12.7331 9.73477 14.1695 9.47501 15.7254C9.39374 16.2116 9.37939 16.4045 9.37939 16.9928C9.37939 17.581 9.39374 17.7739 9.47501 18.2601C9.82242 20.3485 11.0336 22.2042 12.8121 23.3727C14.4137 24.4265 16.3356 24.8346 18.2384 24.5253C19.6168 24.3021 20.8902 23.7075 21.9754 22.7797C22.3483 22.4624 22.8392 21.9332 23.1388 21.5282C24.6352 19.5036 25.0336 16.8748 24.2065 14.4851C23.9085 13.6211 23.4639 12.8367 22.8615 12.1066C22.6702 11.8754 22.1236 11.3254 21.9037 11.1437C20.871 10.2892 19.7125 9.7408 18.4296 9.4937C17.8766 9.38848 17.1372 9.33587 16.6288 9.36776ZM17.7523 10.4008C18.5635 10.5012 19.2583 10.7069 19.9531 11.0544C20.624 11.3892 21.1818 11.7925 21.7125 12.3282C23.1706 13.8012 23.8495 15.8449 23.5674 17.9094C23.467 18.6523 23.2662 19.29 22.9172 19.9819C22.3866 21.0308 21.636 21.8774 20.6623 22.5214C19.6949 23.1623 18.6575 23.5178 17.4894 23.6102C17.1945 23.6342 16.5188 23.6198 16.2384 23.5847C15.4639 23.4891 14.8009 23.2978 14.1364 22.9774C13.8145 22.8227 13.6567 22.7318 13.33 22.5166C12.9443 22.2616 12.675 22.0384 12.3164 21.6813C11.7921 21.1552 11.432 20.6658 11.1101 20.0409C10.6065 19.062 10.3754 18.1055 10.3738 16.9991C10.3738 16.1319 10.5172 15.3555 10.8216 14.5776C10.9969 14.1296 11.1945 13.7534 11.483 13.3182C12.3101 12.0699 13.5435 11.1341 14.9746 10.675C15.4782 10.5124 15.926 10.4279 16.573 10.3705C16.7388 10.3562 17.5627 10.3769 17.7523 10.4008Z" fill="#3585E5"/>
    <path d="M16.7966 12.2373C16.7503 12.2532 16.6898 12.2995 16.626 12.3616C16.5017 12.4876 16.4794 12.5545 16.4635 12.8606C16.4492 13.1444 16.446 13.1492 16.2292 13.2384C15.9185 13.366 15.7145 13.4935 15.5025 13.6912C15.1424 14.0292 14.9304 14.4723 14.8922 14.9809C14.8699 15.2551 14.9432 15.6345 15.0659 15.8832C15.1583 16.0713 15.2603 16.202 15.4547 16.3902C15.646 16.5735 15.8579 16.717 16.2021 16.8971L16.4619 17.0326V18.4068V19.7826H16.3647C16.2324 19.7826 16.0444 19.7172 15.6922 19.5498C15.3272 19.3777 15.2364 19.3458 15.1264 19.3569C14.8316 19.3872 14.6053 19.7571 14.7233 20.0137C14.8619 20.3135 15.7209 20.7519 16.2276 20.7821C16.4587 20.7965 16.4507 20.7869 16.4651 21.1169C16.4778 21.4661 16.4986 21.5282 16.6308 21.6462C16.8332 21.8247 17.1089 21.8152 17.3002 21.6239C17.4101 21.5139 17.4404 21.415 17.4739 21.0547C17.4882 20.9033 17.5025 20.7774 17.5041 20.7742C17.5073 20.7726 17.6173 20.7279 17.748 20.6769C18.1272 20.5303 18.3249 20.4043 18.5958 20.1317C18.9687 19.7587 19.1647 19.3856 19.2619 18.8691C19.3017 18.6523 19.2986 18.2298 19.2555 18.029C19.1679 17.6256 18.9798 17.2925 18.6802 17.0055C18.43 16.7664 18.2101 16.6325 17.7958 16.4651L17.5009 16.3471L17.4898 15.7573C17.4707 14.7641 17.4739 14.348 17.4994 14.2763C17.544 14.1535 17.5806 14.1599 17.8484 14.3368C18.0842 14.4931 18.1735 14.5281 18.3424 14.5281C18.5002 14.5297 18.5655 14.5026 18.6707 14.391C18.7711 14.2874 18.8109 14.1981 18.8109 14.0754C18.8109 13.7486 18.4396 13.4345 17.8053 13.2289C17.5886 13.1587 17.5073 13.1189 17.4898 13.0742C17.4834 13.0599 17.4723 12.9611 17.4659 12.8558C17.4515 12.6295 17.4149 12.5179 17.3161 12.3967C17.1886 12.2405 16.9719 12.1735 16.7966 12.2373ZM16.4412 14.2779C16.4571 14.3592 16.4571 15.55 16.4412 15.7015C16.4237 15.8561 16.4141 15.8736 16.3567 15.8481C16.2388 15.7939 16.0077 15.5373 15.9249 15.3699C15.8866 15.2918 15.885 15.2742 15.8914 15.1307C15.9057 14.898 15.9998 14.6477 16.1416 14.4676C16.1958 14.4006 16.395 14.2189 16.4157 14.2189C16.4221 14.2189 16.4348 14.246 16.4412 14.2779ZM17.6523 17.4981C18.1002 17.7436 18.285 18.029 18.2818 18.4754C18.2818 18.6954 18.2452 18.8516 18.1496 19.0429C18.0794 19.1848 17.8802 19.4382 17.7671 19.5307C17.6938 19.5897 17.4946 19.7188 17.4754 19.7188C17.4707 19.7188 17.4659 19.1991 17.4659 18.563C17.4659 17.927 17.4707 17.4072 17.477 17.4072C17.4818 17.4072 17.5615 17.4471 17.6523 17.4981Z" fill="#3585E5"/>
</svg>
