<svg width="7" height="10" viewBox="0 0 7 10" fill="none" xmlns="http://www.w3.org/2000/svg">
    <g clip-path="url(#clip0_392_24553)">
        <path d="M0.912504 6.2517C0.942822 6.21428 0.980771 6.18417 1.02366 6.16351C1.06656 6.14285 1.11334 6.13214 1.16071 6.13214C1.20808 6.13214 1.25486 6.14285 1.29776 6.16351C1.34065 6.18417 1.3786 6.21428 1.40892 6.2517L3.05257 8.16664L3.05257 0.861399C3.04785 0.759949 3.08186 0.660616 3.14733 0.584564C3.2128 0.508512 3.30457 0.461755 3.40309 0.454253C3.5016 0.461755 3.59337 0.508512 3.65885 0.584564C3.72432 0.660616 3.75832 0.759949 3.75361 0.861399L3.75361 8.16664L5.39726 6.24488C5.42776 6.20776 5.46577 6.17793 5.50864 6.15747C5.55151 6.13701 5.5982 6.12641 5.64547 6.12641C5.69273 6.12641 5.73942 6.13701 5.78229 6.15747C5.82516 6.17793 5.86317 6.20776 5.89367 6.24488C5.95983 6.32593 5.99609 6.42835 5.99609 6.53417C5.99609 6.63998 5.95983 6.7424 5.89367 6.82345L3.65129 9.42996C3.61985 9.46496 3.58265 9.49397 3.5414 9.51568C3.49923 9.5368 3.45283 9.54748 3.40593 9.54685C3.35933 9.54625 3.31338 9.53552 3.27109 9.51538C3.22881 9.49523 3.19114 9.46613 3.16057 9.42996L0.921031 6.82638C0.853249 6.74734 0.815144 6.64601 0.813581 6.54065C0.812018 6.43529 0.847099 6.33282 0.912504 6.2517Z" fill="#888888" stroke="#888888" stroke-width="0.25"/>
    </g>
    <defs>
        <clipPath id="clip0_392_24553">
            <rect width="5.47" height="9.34" fill="white" transform="translate(0.667969 0.328125)"/>
        </clipPath>
    </defs>
</svg>
