<svg width="6" height="10" viewBox="0 0 6 10" fill="none" xmlns="http://www.w3.org/2000/svg">
    <g clip-path="url(#clip0_392_25556)">
        <path d="M0.244535 6.2517C0.274853 6.21428 0.312802 6.18417 0.355695 6.16351C0.398588 6.14285 0.445374 6.13214 0.492741 6.13214C0.540108 6.13214 0.586895 6.14285 0.629787 6.16351C0.67268 6.18417 0.710629 6.21428 0.740947 6.2517L2.3846 8.16664L2.3846 0.861399C2.37988 0.759949 2.41389 0.660616 2.47936 0.584564C2.54484 0.508512 2.63661 0.461755 2.73512 0.454253C2.83363 0.461755 2.9254 0.508512 2.99088 0.584564C3.05635 0.660616 3.09035 0.759949 3.08564 0.861399L3.08564 8.16664L4.72929 6.24488C4.75979 6.20776 4.79781 6.17793 4.84067 6.15747C4.88354 6.13701 4.93023 6.12641 4.9775 6.12641C5.02476 6.12641 5.07145 6.13701 5.11432 6.15747C5.15719 6.17793 5.1952 6.20776 5.2257 6.24488C5.29186 6.32593 5.32812 6.42835 5.32812 6.53417C5.32812 6.63998 5.29186 6.7424 5.2257 6.82345L2.98333 9.42996C2.95188 9.46496 2.91468 9.49397 2.87343 9.51568C2.83126 9.5368 2.78487 9.54748 2.73796 9.54685C2.69136 9.54625 2.64541 9.53552 2.60313 9.51538C2.56084 9.49523 2.52317 9.46613 2.4926 9.42996L0.253062 6.82638C0.18528 6.74734 0.147175 6.64601 0.145612 6.54065C0.144049 6.43529 0.17913 6.33282 0.244535 6.2517Z" fill="#888888" stroke="#888888" stroke-width="0.25"/>
    </g>
    <defs>
        <clipPath id="clip0_392_25556">
            <rect width="5.47" height="9.34" fill="white" transform="translate(0 0.328125)"/>
        </clipPath>
    </defs>
</svg>
