<svg width="18" height="18" viewBox="0 0 18 18" fill="none" xmlns="http://www.w3.org/2000/svg">
    <path d="M17.4075 0H0.592767C0.266061 0 0 0.266041 0 0.592767V17.4074C0 17.7344 0.26604 18 0.592555 18H17.4072C17.7341 18 17.9998 17.734 17.9998 17.4074L18 0.592767C18.0002 0.266062 17.7346 0 17.4077 0H17.4075ZM17.4727 0.592767V4.36805H9.26382V0.527734H17.4075C17.4433 0.527734 17.4727 0.55672 17.4727 0.592746L17.4727 0.592767ZM13.1044 17.4726H9.26387V4.94895H13.1044V17.4726ZM13.6321 4.89595H17.4727V13.1663H13.6321V4.89595ZM0.59274 0.527894H8.7364V8.73674H0.527549V0.593085C0.527549 0.557061 0.556534 0.528074 0.592561 0.528074L0.59274 0.527894ZM0.527729 17.4078V9.2641H8.73658V17.473H0.59292C0.556896 17.4732 0.527909 17.4438 0.527909 17.4079L0.527729 17.4078ZM17.4076 17.473H13.6323V13.6937H17.4728V17.4077C17.4728 17.4436 17.4435 17.473 17.4076 17.473L17.4076 17.473Z" fill="#4B4B4B"/>
</svg>
