<svg width="30" height="30" viewBox="0 0 30 30" fill="none" xmlns="http://www.w3.org/2000/svg">
<path d="M13.0134 16.4624C15.3572 16.4624 17.2573 14.5623 17.2573 12.2185C17.2573 9.87466 15.3572 7.97461 13.0134 7.97461C10.6696 7.97461 8.76953 9.87466 8.76953 12.2185C8.76953 14.5623 10.6696 16.4624 13.0134 16.4624Z" fill="#10155A"/>
<path d="M17.3199 15.484C17.229 15.4658 17.1382 15.5021 17.0745 15.5658C14.9026 17.8104 11.3221 17.8649 9.0775 15.6839C9.03206 15.6475 8.99571 15.6021 8.95936 15.5658C8.89575 15.4931 8.80487 15.4658 8.714 15.484C6.32397 15.9111 5.58788 21.4817 5.77872 22.9267C5.86051 23.4447 6.13313 23.9081 6.53299 24.2353C7.12368 24.7351 7.87794 25.0077 8.65947 24.9986H17.3744C18.1469 25.0077 18.9011 24.7351 19.4918 24.2353C19.9008 23.9081 20.1643 23.4447 20.2461 22.9267C20.4369 21.4817 19.7008 15.9111 17.3199 15.484Z" fill="#10155A"/>
<path d="M17.9211 12.0784C17.9211 12.5419 17.8484 13.0053 17.7212 13.4506C20.0385 13.1144 21.647 10.9515 21.3016 8.63421C20.9563 6.3078 18.8026 4.70839 16.4852 5.04463C15.0949 5.24456 13.8953 6.12605 13.2773 7.39831C15.8491 7.41648 17.9211 9.50662 17.9211 12.0784Z" fill="#10155A"/>
<path d="M21.3104 12.7C21.2195 12.6818 21.1286 12.7182 21.065 12.7818C20.1472 13.7632 18.884 14.363 17.5391 14.4721C18.566 14.8174 19.3747 15.6171 19.7382 16.644C20.5016 18.407 20.9105 20.2972 20.956 22.2147H21.3558C22.1283 22.2237 22.8825 21.9511 23.4732 21.4513C23.8822 21.1241 24.1457 20.6607 24.2275 20.1427C24.4183 18.6978 23.6822 13.1271 21.3013 12.7H21.3104Z" fill="#10155A"/>
</svg>
