<svg width="26" height="26" viewBox="0 0 26 26" fill="none" xmlns="http://www.w3.org/2000/svg">
<path d="M11.3432 14.2196C13.2964 14.2196 14.8798 12.6362 14.8798 10.6831C14.8798 8.72986 13.2964 7.14648 11.3432 7.14648C9.39002 7.14648 7.80664 8.72986 7.80664 10.6831C7.80664 12.6362 9.39002 14.2196 11.3432 14.2196Z" fill="#3491FF"/>
<path d="M14.9326 13.4049C14.8569 13.3898 14.7811 13.4201 14.7281 13.4731C12.9182 15.3436 9.93445 15.389 8.06393 13.5715C8.02607 13.5412 7.99577 13.5034 7.96548 13.4731C7.91247 13.4125 7.83674 13.3898 7.76101 13.4049C5.76933 13.7609 5.15592 18.4031 5.31495 19.6072C5.3831 20.0388 5.61029 20.4251 5.9435 20.6977C6.43575 21.1142 7.0643 21.3414 7.71557 21.3338H14.978C15.6217 21.3414 16.2503 21.1142 16.7425 20.6977C17.0833 20.4251 17.3029 20.0388 17.3711 19.6072C17.5301 18.4031 16.9167 13.7609 14.9326 13.4049Z" fill="#3491FF"/>
<path d="M15.4323 10.5647C15.4323 10.9509 15.3717 11.3371 15.2657 11.7082C17.1968 11.428 18.5372 9.62563 18.2494 7.69453C17.9616 5.75585 16.1669 4.42301 14.2358 4.70321C13.0771 4.86981 12.0775 5.60439 11.5625 6.6646C13.7056 6.67975 15.4323 8.42153 15.4323 10.5647Z" fill="#3491FF"/>
<path d="M18.2561 11.082C18.1803 11.0669 18.1046 11.0972 18.0516 11.1502C17.2867 11.9681 16.2341 12.4679 15.1133 12.5588C15.969 12.8465 16.643 13.5129 16.9459 14.3687C17.5821 15.8378 17.9228 17.413 17.9607 19.0109H18.2939C18.9376 19.0185 19.5662 18.7913 20.0584 18.3748C20.3992 18.1022 20.6188 17.7159 20.687 17.2843C20.846 16.0802 20.2326 11.438 18.2485 11.082H18.2561Z" fill="#3491FF"/>
</svg>
