<svg width="31" height="30" viewBox="0 0 31 30" fill="none" xmlns="http://www.w3.org/2000/svg">
<path d="M13.2546 5.04694C13.1906 5.0676 13.1285 5.09389 13.0691 5.12551C12.9543 5.1915 12.7946 5.36513 12.7946 5.42248C12.7946 5.44841 12.8819 5.963 12.9888 6.56402C13.0958 7.16504 13.1831 7.70007 13.1831 7.74249C13.1832 7.8001 13.1677 7.85666 13.1382 7.90616C13.1087 7.95567 13.0664 7.99627 13.0156 8.02366C12.9649 8.05106 12.9077 8.06421 12.8501 8.06174C12.7925 8.05927 12.7366 8.04125 12.6885 8.00961C12.5697 7.93576 12.5642 7.91769 12.3739 6.84607C12.278 6.29612 12.1946 5.83416 12.1907 5.82473C12.1813 5.7988 12.061 5.86008 11.8109 6.02036C11.0059 6.53653 10.3969 7.30705 10.081 8.20917C9.95013 8.581 9.87333 8.96966 9.85293 9.36328L9.84036 9.57933L9.68309 9.59033C9.56446 9.59262 9.44872 9.62738 9.34848 9.69082C9.24824 9.75427 9.16733 9.84397 9.11457 9.95016C9.07353 10.0304 9.05557 10.1204 9.06267 10.2102C9.05427 10.2997 9.07087 10.3897 9.11063 10.4703C9.1772 10.6062 9.28815 10.7153 9.42517 10.7798L9.52896 10.8277H18.715L18.8203 10.7759C18.9652 10.7007 19.0793 10.5773 19.1427 10.427C19.166 10.3526 19.1771 10.2749 19.1757 10.1968C19.18 10.1084 19.1587 10.0206 19.1144 9.94387C19.0623 9.83644 18.9806 9.74606 18.879 9.68331C18.7773 9.62056 18.6599 9.58804 18.5404 9.58954L18.3941 9.57697L18.3815 9.4002C18.3527 8.81564 18.2039 8.24323 17.9443 7.71856C17.6847 7.19389 17.3199 6.72817 16.8726 6.35033C16.6248 6.13048 16.3434 5.95171 16.039 5.8208C16.039 5.89308 15.6797 7.84541 15.6616 7.88391C15.6383 7.92962 15.6045 7.96921 15.563 7.99946C15.5215 8.02972 15.4735 8.04979 15.4228 8.05805C15.3722 8.06631 15.3202 8.06253 15.2713 8.04702C15.2223 8.03151 15.1777 8.0047 15.1411 7.96876C15.0152 7.84305 15.0137 7.88548 15.2409 6.59545C15.3541 5.95908 15.4462 5.42484 15.4462 5.40991C15.3828 5.29995 15.2938 5.20695 15.1867 5.13886C14.9924 5.01316 14.9508 5.01002 14.1164 5.01159C13.8288 4.98829 13.5394 5.00016 13.2546 5.04694Z" fill="#10155A"/>
<path d="M9.88672 11.5048C9.88672 11.5236 9.90008 11.643 9.9166 11.7687C10.065 13.2412 10.683 14.6272 11.6796 15.7221C12.1833 16.2569 12.8375 16.6264 13.5558 16.7819C13.7409 16.82 13.9301 16.8342 14.1188 16.8244C14.308 16.8341 14.4977 16.8198 14.6834 16.7819C15.4242 16.6191 16.0955 16.2291 16.6036 15.6663C17.5788 14.5653 18.1805 13.1842 18.3225 11.7208C18.3375 11.599 18.3501 11.4922 18.3501 11.4851C18.2651 11.471 18.1789 11.466 18.0929 11.4702H17.8358L17.8232 11.5849C17.7244 12.5627 17.4149 13.5075 16.9158 14.3543C16.5742 14.925 16.1051 15.409 15.5452 15.7685C15.2372 15.9508 14.8994 16.0774 14.5473 16.1424C14.2795 16.1778 14.0084 16.181 13.7398 16.1519C13.2574 16.0561 12.8007 15.8596 12.3996 15.5753C11.9985 15.291 11.662 14.9252 11.4122 14.502C10.8795 13.6622 10.5432 12.7132 10.4285 11.7255L10.3955 11.4788L10.1415 11.4733C9.8993 11.4663 9.88672 11.4663 9.88672 11.5048Z" fill="#10155A"/>
<path d="M22.7298 14.1503C22.2631 14.2336 21.8321 14.4543 21.4919 14.7841C21.1517 15.1139 20.9179 15.5378 20.8206 16.0013C20.7915 16.1567 20.7801 16.3148 20.7867 16.4727C20.7752 16.7128 20.8099 16.9528 20.889 17.1798L20.9283 17.2961L18.6039 19.6137C16.0962 22.1137 16.226 21.9754 16.1552 22.2433C16.112 22.4258 16.1222 22.6168 16.1845 22.7937C16.2469 22.9706 16.3587 23.1259 16.5068 23.2411C16.6549 23.3563 16.833 23.4265 17.0199 23.4435C17.2068 23.4605 17.3947 23.4235 17.5612 23.3369C17.6595 23.2874 17.9913 22.9645 19.991 20.9753L22.3075 18.6725L22.4294 18.711C22.6641 18.7846 22.9093 18.8188 23.1552 18.8124C23.4074 18.8186 23.6585 18.7781 23.8959 18.693C24.2686 18.5678 24.6037 18.3512 24.8707 18.0629C25.1376 17.7746 25.3278 17.4239 25.4238 17.0431C25.4517 16.9307 25.4732 16.8169 25.4883 16.7021L25.4993 16.5639L25.2767 16.3423L25.0526 16.1207L24.5022 16.6707L23.9518 17.2207H23.0451L22.7156 16.8923L22.3877 16.5662V15.6446L22.9342 15.101L23.4808 14.5573L23.2637 14.3413C23.0491 14.1252 23.0451 14.1236 22.9617 14.1252C22.8839 14.1283 22.8064 14.1367 22.7298 14.1503ZM17.2836 22.0382C17.366 22.0758 17.4364 22.1352 17.4873 22.21C17.5382 22.2848 17.5676 22.3722 17.5722 22.4625C17.5748 22.5222 17.5651 22.5818 17.5438 22.6376C17.5224 22.6934 17.4898 22.7442 17.448 22.787C17.3929 22.8483 17.3225 22.894 17.244 22.9193C17.1654 22.9445 17.0816 22.9486 17.001 22.9309C16.9204 22.9133 16.846 22.8746 16.7852 22.8188C16.7245 22.763 16.6797 22.6921 16.6554 22.6133C16.6201 22.5232 16.6201 22.423 16.6554 22.3328C16.6842 22.2372 16.744 22.1538 16.8254 22.0958C16.9068 22.0378 17.0052 22.0084 17.1051 22.0123C17.1656 22.0115 17.2259 22.0202 17.2836 22.0382Z" fill="#10155A"/>
<path d="M10.5077 16.2611C9.94979 16.3301 9.40477 16.4791 8.8894 16.7034C8.0791 17.0603 7.36336 17.6013 6.79916 18.2832C6.23496 18.9652 5.83786 19.7694 5.63947 20.6316C5.47539 21.3303 5.45586 22.0551 5.58207 22.7615C5.66214 23.2412 5.88777 23.6846 6.22843 24.0319C6.82998 24.6314 7.73584 24.9024 9.38794 24.9818C9.92107 25.0061 18.2924 25.0077 18.8326 24.9818C20.8645 24.8859 21.864 24.4766 22.3845 23.5252C22.6255 22.8685 22.7317 22.1701 22.6967 21.4716C22.6617 20.7731 22.4862 20.0888 22.1808 19.4595C22.1714 19.4485 21.3348 20.2687 20.0577 21.5359C18.4764 23.1072 17.926 23.643 17.8466 23.6894C17.59 23.8454 17.2906 23.9164 16.9913 23.8922C16.6919 23.8681 16.4078 23.75 16.1796 23.5549C15.9514 23.3599 15.7907 23.0977 15.7205 22.8059C15.6503 22.5142 15.6742 22.2077 15.7887 21.9303C15.9035 21.6592 15.9035 21.6592 18.1595 19.4115L20.3172 17.2596L20.1545 17.1512C19.4036 16.658 18.5458 16.351 17.6523 16.2556C17.5737 16.2462 17.5737 16.2462 17.5635 16.3129C17.4984 16.6187 17.3859 16.9124 17.2301 17.1834C16.5949 18.3474 15.8874 19.4704 15.1117 20.546C14.9544 20.7746 14.8758 20.8665 14.8758 20.8406C14.8663 20.7573 14.724 18.6871 14.724 18.6133C14.724 18.5394 14.7295 18.5347 14.7869 18.5009C15.0107 18.3602 15.1919 18.1615 15.3114 17.9259C15.375 17.7868 15.4134 17.6376 15.4246 17.4851C15.3802 17.4911 15.3369 17.5041 15.2965 17.5236C15.0425 17.6118 14.7808 17.6759 14.5149 17.7153C14.3456 17.7322 14.1753 17.7367 14.0053 17.7287C13.6738 17.7261 13.3452 17.6674 13.0334 17.555L12.8164 17.4812V17.5291C12.8314 17.6653 12.8689 17.798 12.9272 17.9219C13.0075 18.081 13.1153 18.2247 13.2457 18.3462C13.3252 18.4159 13.4122 18.4765 13.5052 18.5269C13.5217 18.5324 13.3833 20.7723 13.3605 20.8446C13.3456 20.8925 12.3288 19.3989 11.8028 18.5599C11.3354 17.8941 10.9611 17.1678 10.6901 16.4009C10.6854 16.3437 10.6683 16.2882 10.6398 16.2383L10.5077 16.2611Z" fill="#10155A" stroke="#10155A"/>
</svg>
