<svg width="9" height="5" viewBox="0 0 9 5" fill="none" xmlns="http://www.w3.org/2000/svg">
    <path d="M4.42883 3.54635L1.08008 0.354569C0.961182 0.241663 0.800058 0.178364 0.632154 0.178599C0.46425 0.178833 0.303321 0.242581 0.184769 0.355819C0.0662177 0.469057 -0.000245652 0.622509 4.96886e-07 0.782417C0.000246645 0.942326 0.0671821 1.09559 0.186082 1.2085L3.97883 4.82457C4.094 4.93382 4.24895 4.99661 4.41146 4.99987C4.57398 5.00313 4.73156 4.94661 4.85146 4.84207L8.67383 1.211C8.79273 1.09809 8.85967 0.944825 8.85991 0.784917C8.86016 0.625009 8.7937 0.471557 8.67514 0.358319C8.55659 0.245081 8.39566 0.181333 8.22776 0.181098C8.05986 0.180864 7.89873 0.244163 7.77983 0.357069L4.42883 3.54635Z" fill="#3491FF"/>
    </svg>
    