<svg width="13" height="7" viewBox="0 0 13 7" fill="none" xmlns="http://www.w3.org/2000/svg">
<g clip-path="url(#clip0_1067_954)">
<path d="M7.17747 5.87523C6.99273 6.04586 6.75047 6.14062 6.49897 6.14063C6.24748 6.14063 6.00522 6.04586 5.82047 5.87523L1.87847 2.23623C1.73052 2.09974 1.62721 1.92177 1.58204 1.72562C1.53687 1.52946 1.55195 1.32423 1.62531 1.13679C1.69867 0.949337 1.82689 0.788391 1.99321 0.674996C2.15952 0.561601 2.35618 0.501038 2.55747 0.501225L10.4415 0.501225C10.6427 0.501239 10.8392 0.561948 11.0054 0.675419C11.1715 0.78889 11.2996 0.949846 11.3728 1.13725C11.446 1.32466 11.461 1.5298 11.4158 1.72586C11.3707 1.92192 11.2674 2.09979 11.1195 2.23623L7.17747 5.87523Z" fill="#4B4B4B"/>
</g>
<defs>
<clipPath id="clip0_1067_954">
<rect width="13" height="6" fill="white" transform="translate(0 0.5)"/>
</clipPath>
</defs>
</svg>
