<svg width="12" height="8" viewBox="0 0 12 8" fill="none" xmlns="http://www.w3.org/2000/svg">
    <path d="M6.09489 2.5351L10.5599 7.0036C10.7184 7.16167 10.9333 7.25029 11.1571 7.24996C11.381 7.24963 11.5956 7.16039 11.7536 7.00185C11.9117 6.84332 12.0003 6.62849 12 6.40462C11.9997 6.18074 11.9104 5.96617 11.7519 5.8081L6.69489 0.745604C6.54134 0.592646 6.33474 0.50475 6.11805 0.500187C5.90136 0.495624 5.69125 0.574746 5.53139 0.721104L0.434891 5.8046C0.276358 5.96267 0.18711 6.17724 0.186782 6.40112C0.186454 6.62499 0.275072 6.83982 0.433141 6.99835C0.591209 7.15689 0.805782 7.24613 1.02965 7.24646C1.25352 7.24679 1.46836 7.15817 1.62689 7.0001L6.09489 2.5351Z" fill="#3585E5"/>
    </svg>
    