<svg width="22" height="22" viewBox="0 0 22 22" fill="none" xmlns="http://www.w3.org/2000/svg">
    <rect width="22" height="22" rx="3" fill="#C4C4C4"/>
    <path d="M9.10838 11.0993L13.7304 6.48134C13.8903 6.31671 13.979 6.09571 13.9772 5.86618C13.9754 5.63665 13.8833 5.41706 13.7208 5.25495C13.5583 5.09284 13.3385 5.00125 13.1089 5.00001C12.8794 4.99878 12.6586 5.08799 12.4944 5.24834L7.25238 10.4803C7.09513 10.639 7.00484 10.852 7.00019 11.0753C6.99554 11.2987 7.07687 11.5153 7.22738 11.6803L12.4854 16.9493C12.6496 17.1097 12.8704 17.1989 13.0999 17.1977C13.3295 17.1964 13.5493 17.1049 13.7118 16.9427C13.8743 16.7806 13.9664 16.561 13.9682 16.3315C13.97 16.102 13.8813 15.881 13.7214 15.7163L9.10838 11.0993Z" fill="white"/>
    </svg>
    