<svg width="25" height="25" viewBox="0 0 25 25" fill="none" xmlns="http://www.w3.org/2000/svg">
    <rect width="25" height="25" rx="3" fill="#D9D9D9"/>
    <path d="M17.556 7.708H14.9L14.694 7.294C14.6499 7.20555 14.582 7.13117 14.4979 7.07923C14.4138 7.02729 14.3168 6.99985 14.218 7H11.69C11.5915 6.99971 11.4949 7.02713 11.4113 7.07911C11.3277 7.1311 11.2603 7.20557 11.217 7.294L11.008 7.708H8.354C8.26011 7.708 8.17007 7.7453 8.10368 7.81169C8.0373 7.87807 8 7.96812 8 8.062V8.77C8 8.86389 8.0373 8.95393 8.10368 9.02032C8.17007 9.08671 8.26011 9.124 8.354 9.124H17.554C17.6007 9.12427 17.6469 9.1153 17.6901 9.09763C17.7333 9.07996 17.7725 9.05393 17.8056 9.02103C17.8387 8.98813 17.8649 8.94902 17.8829 8.90594C17.9008 8.86286 17.91 8.81666 17.91 8.77V8.062C17.91 8.01551 17.9008 7.96948 17.8831 7.92653C17.8653 7.88358 17.8392 7.84456 17.8063 7.81169C17.7734 7.77881 17.7344 7.75274 17.6915 7.73495C17.6485 7.71716 17.6025 7.708 17.556 7.708V7.708ZM9.177 17.33C9.19281 17.6004 9.31138 17.8546 9.50842 18.0405C9.70547 18.2264 9.96611 18.33 10.237 18.33H15.674C15.9449 18.33 16.2055 18.2264 16.4026 18.0405C16.5996 17.8546 16.7182 17.6004 16.734 17.33L17.203 9.83H8.708L9.177 17.33Z" fill="#595959"/>
</svg>
